<?xml version="1.0" standalone="no"?>
<!DOCTYPE svg PUBLIC "-//W3C//DTD SVG 20010904//EN"
 "http://www.w3.org/TR/2001/REC-SVG-20010904/DTD/svg10.dtd">
<svg version="1.0" xmlns="http://www.w3.org/2000/svg"
 width="2188.000000pt" height="2188.000000pt" viewBox="0 0 2188.000000 2188.000000"
 preserveAspectRatio="xMidYMid meet">
<metadata>
Created by potrace 1.14, written by Peter Selinger 2001-2017
</metadata>
<g transform="translate(0.000000,2188.000000) scale(0.100000,-0.100000)"
fill="#000000" stroke="none">
<path d="M1043 19830 c4 -14 4 -19 1 -12 -3 6 -11 9 -16 6 -6 -4 -8 -3 -5 3 4
6 -6 10 -23 9 -20 -1 -29 -5 -25 -14 3 -8 0 -10 -8 -5 -18 11 -37 12 -37 2 0
-6 -4 -7 -10 -4 -5 3 -10 -2 -10 -12 -1 -17 -1 -17 -11 0 -6 9 -15 15 -20 11
-6 -4 -6 -11 2 -20 16 -19 4 -18 -15 2 -15 14 -16 13 -17 -8 0 -13 -3 -18 -5
-11 -3 7 -12 9 -21 6 -11 -5 -14 -3 -8 6 6 10 2 10 -16 0 -13 -7 -27 -13 -30
-12 -3 1 -6 -5 -6 -12 0 -10 4 -12 12 -5 9 7 17 5 26 -7 13 -16 12 -17 -3 -4
-15 11 -19 11 -24 -4 -6 -15 -9 -15 -20 6 -7 13 -13 18 -14 11 0 -7 -5 -10
-12 -6 -7 4 -8 3 -4 -5 4 -6 12 -8 18 -5 7 4 8 2 4 -4 -5 -9 -13 -9 -29 0 -21
11 -21 10 -7 -7 8 -10 10 -16 3 -12 -6 4 -14 1 -17 -5 -3 -9 -10 -7 -21 7 -17
20 -17 19 -10 -5 7 -22 6 -23 -9 -11 -9 8 -19 11 -23 7 -3 -3 0 -6 8 -6 11 0
11 -2 -1 -10 -11 -7 -11 -10 -2 -10 7 0 10 -5 6 -11 -4 -8 -11 -4 -19 11 -10
19 -13 20 -18 6 -4 -10 -12 -14 -17 -11 -6 4 -9 1 -8 -7 2 -7 -3 -12 -11 -10
-14 3 -31 -14 -31 -32 0 -6 6 -2 13 8 13 17 14 18 20 2 4 -9 3 -14 -2 -11 -5
3 -13 0 -17 -6 -5 -9 -11 -7 -20 6 -12 16 -13 13 -10 -19 2 -20 0 -33 -5 -30
-5 3 -7 10 -4 15 4 5 1 9 -4 9 -11 0 -15 -13 -12 -40 2 -13 0 -13 -8 -1 -5 8
-7 20 -4 28 3 7 1 13 -4 13 -18 0 -22 -12 -12 -39 8 -21 8 -24 -2 -13 -18 17
-29 15 -29 -4 0 -14 -3 -14 -15 -4 -13 11 -14 10 -9 -4 5 -12 2 -15 -12 -10
-18 5 -18 5 -1 -6 9 -6 22 -8 29 -4 7 4 8 3 4 -5 -4 -6 -16 -9 -26 -6 -12 4
-23 -1 -33 -15 -7 -11 -17 -17 -20 -13 -4 3 -7 -1 -7 -11 0 -9 4 -15 9 -11 5
3 13 1 16 -5 4 -6 3 -10 -2 -9 -20 3 -34 -2 -28 -11 3 -5 1 -10 -5 -10 -7 0
-9 9 -5 23 6 21 5 21 -6 2 -7 -11 -19 -26 -26 -33 -7 -7 -13 -23 -13 -35 0
-20 0 -20 -15 -1 -14 18 -15 18 -6 -6 13 -39 3 -54 -19 -28 -19 23 -23 7 -6
-21 5 -8 5 -12 0 -9 -5 3 -18 -6 -29 -21 -17 -23 -17 -24 -1 -11 21 16 49 23
40 9 -3 -5 -9 -7 -14 -4 -4 3 -13 -2 -20 -11 -7 -8 -19 -13 -26 -10 -9 4 -10
-3 -4 -26 8 -27 7 -28 -7 -16 -15 11 -16 11 -10 -4 4 -12 2 -18 -7 -18 -8 0
-17 -7 -20 -16 -5 -14 -4 -15 8 -5 10 8 16 9 21 1 4 -6 3 -10 -2 -9 -20 4 -24
-2 -12 -18 8 -9 9 -14 2 -10 -6 4 -13 4 -16 0 -2 -5 -3 -3 -1 3 1 6 -8 16 -19
24 -19 11 -20 11 -11 -1 19 -25 24 -60 8 -66 -10 -4 -12 -9 -4 -18 7 -9 6 -16
-5 -25 -9 -7 -18 -10 -22 -6 -3 3 -2 6 4 6 5 0 10 7 10 16 0 12 -5 10 -18 -7
-10 -13 -16 -26 -13 -28 2 -2 -3 -13 -13 -23 -9 -11 -11 -18 -5 -18 7 0 12 5
12 11 0 5 5 7 10 4 8 -5 7 -11 -1 -21 -9 -11 -8 -18 2 -31 10 -14 8 -13 -10 2
-14 11 -22 15 -18 9 3 -6 9 -25 12 -43 5 -30 4 -32 -10 -17 -9 9 -18 16 -21
16 -9 0 2 -25 15 -36 11 -9 12 -12 1 -19 -8 -5 -11 -4 -7 2 3 5 0 10 -7 10 -7
0 -13 -6 -13 -13 0 -7 4 -11 8 -8 4 2 10 0 14 -6 3 -5 -2 -10 -11 -10 -16 0
-15 -2 2 -22 10 -13 15 -20 10 -16 -11 9 -34 -32 -28 -49 2 -7 9 -10 15 -6 6
4 7 1 3 -6 -5 -7 -15 -10 -23 -6 -13 4 -14 3 -3 -10 7 -8 9 -15 4 -15 -5 0 -1
-7 9 -14 16 -12 16 -14 2 -20 -11 -4 -14 -2 -9 6 4 7 3 8 -5 4 -6 -4 -8 -12
-5 -18 4 -5 6 -30 6 -54 -1 -29 2 -42 9 -38 6 3 5 -3 -3 -15 -10 -17 -10 -25
0 -41 7 -11 9 -20 5 -19 -20 3 -27 -2 -13 -11 13 -9 13 -11 0 -20 -13 -8 -12
-10 4 -10 20 0 20 0 0 -16 -13 -10 -14 -14 -4 -11 10 3 16 -2 16 -13 0 -11 -5
-16 -15 -12 -10 4 -12 1 -6 -9 5 -7 8 -40 7 -72 -1 -32 2 -56 6 -53 5 3 9 -1
9 -9 0 -8 -4 -12 -9 -9 -4 3 -8 -7 -8 -23 0 -20 3 -24 9 -14 7 10 9 7 8 -12
-1 -16 -6 -22 -12 -17 -7 6 -11 2 -11 -9 0 -10 5 -17 11 -14 7 2 12 -3 12 -11
0 -8 -7 -12 -16 -9 -11 3 -10 0 3 -11 18 -14 15 -21 -7 -17 -5 1 -6 -3 -2 -9
8 -14 13 -100 5 -95 -3 2 -6 -5 -6 -15 0 -10 3 -18 6 -18 20 2 21 -4 4 -17
-15 -12 -16 -14 -3 -15 9 0 16 -6 16 -14 0 -8 -6 -12 -15 -8 -10 3 -13 1 -8
-6 4 -6 7 -37 7 -69 1 -32 6 -64 12 -72 9 -12 9 -13 0 -7 -9 5 -13 0 -13 -14
0 -12 5 -18 10 -15 17 11 11 -7 -7 -21 -16 -12 -16 -13 -2 -14 9 0 16 -6 16
-14 0 -8 -6 -12 -15 -8 -10 3 -13 1 -8 -6 3 -6 7 -35 7 -64 1 -29 6 -59 12
-66 6 -7 6 -12 1 -11 -21 4 -28 -2 -14 -12 12 -8 12 -12 2 -16 -10 -4 -9 -8 3
-17 17 -12 11 -51 -6 -40 -5 3 -6 -2 -3 -10 3 -9 11 -13 18 -9 8 5 8 3 -1 -8
-6 -8 -11 -37 -11 -64 0 -27 5 -56 11 -64 9 -12 9 -13 0 -7 -9 5 -13 0 -13
-14 0 -12 5 -18 10 -15 17 11 11 -7 -8 -21 -15 -12 -15 -13 -1 -14 9 0 16 -6
16 -14 0 -8 -6 -12 -15 -8 -10 3 -13 1 -8 -6 3 -6 7 -35 7 -64 1 -29 6 -59 12
-66 6 -7 6 -12 1 -11 -21 4 -28 -2 -14 -12 12 -8 12 -12 2 -16 -10 -4 -9 -8 3
-17 17 -12 11 -51 -6 -40 -5 3 -6 -2 -3 -10 3 -9 11 -13 18 -9 8 5 8 3 0 -8
-17 -20 -17 -168 -2 -187 10 -13 10 -14 1 -8 -10 5 -13 -11 -13 -73 0 -44 5
-83 10 -86 6 -3 10 -12 9 -18 0 -9 -2 -9 -6 1 -9 22 -20 13 -15 -13 2 -14 8
-22 13 -19 5 3 9 0 9 -5 0 -6 -8 -11 -17 -11 -17 -1 -17 -1 -1 -14 23 -17 23
-27 0 -19 -15 6 -15 5 -3 -10 11 -14 11 -17 0 -17 -10 -1 -9 -4 4 -14 21 -17
22 -27 1 -19 -14 5 -15 3 -6 -14 6 -11 9 -23 5 -26 -3 -4 0 -13 7 -22 11 -13
10 -14 -6 -8 -15 5 -17 4 -8 -8 7 -8 8 -23 4 -34 -5 -13 -2 -27 9 -39 9 -11
10 -16 4 -12 -10 5 -13 -12 -13 -73 0 -44 5 -83 10 -86 6 -3 10 -12 9 -18 0
-9 -2 -9 -6 1 -9 22 -20 13 -15 -13 2 -14 8 -22 13 -19 5 3 9 0 9 -5 0 -6 -8
-11 -17 -11 -17 -1 -17 -1 -1 -14 23 -17 23 -27 0 -19 -15 6 -15 5 -3 -10 11
-14 11 -17 0 -17 -10 -1 -9 -4 3 -14 22 -17 23 -27 2 -19 -14 5 -15 3 -6 -14
6 -11 9 -23 5 -26 -3 -4 0 -13 7 -22 11 -13 10 -14 -6 -8 -15 5 -17 4 -8 -8 7
-8 8 -23 4 -34 -5 -13 -2 -27 9 -39 9 -11 10 -16 4 -12 -10 5 -13 -12 -13 -73
0 -44 5 -83 10 -86 6 -3 10 -12 9 -18 0 -9 -2 -9 -6 1 -9 22 -20 13 -15 -13 2
-14 8 -22 13 -19 5 3 9 0 9 -5 0 -6 -8 -11 -17 -11 -17 -1 -17 -1 -1 -14 23
-17 23 -27 1 -19 -16 6 -16 5 -4 -10 11 -14 11 -17 0 -17 -10 -1 -9 -4 3 -14
22 -17 23 -27 2 -19 -14 5 -15 3 -6 -14 6 -11 9 -23 5 -26 -3 -4 0 -13 7 -22
11 -13 10 -14 -6 -8 -15 5 -17 4 -8 -8 7 -8 8 -23 4 -34 -5 -13 -2 -27 9 -39
9 -11 10 -16 4 -12 -10 5 -13 -12 -13 -73 0 -44 5 -83 10 -86 6 -3 10 -12 9
-18 0 -9 -2 -9 -6 1 -9 22 -20 13 -15 -13 2 -14 8 -22 13 -19 5 3 9 0 9 -5 0
-6 -8 -11 -17 -11 -17 -1 -17 -1 -1 -14 23 -17 23 -27 0 -19 -15 6 -15 5 -3
-10 11 -14 11 -17 0 -17 -10 -1 -9 -4 3 -14 23 -17 23 -27 1 -19 -11 4 -14 3
-9 -6 12 -19 14 -61 4 -61 -5 0 -6 -5 -3 -10 4 -6 12 -7 18 -3 7 4 7 0 -1 -10
-8 -9 -11 -21 -7 -27 3 -5 1 -10 -6 -10 -10 0 -10 -3 -2 -11 8 -8 8 -20 3 -34
-5 -13 -6 -26 -3 -29 4 -4 6 -25 6 -49 -1 -23 4 -48 9 -55 8 -9 6 -11 -8 -6
-15 6 -17 4 -7 -6 7 -8 9 -20 3 -35 -5 -13 -6 -25 -3 -28 10 -11 8 -145 -2
-139 -6 3 -4 -2 4 -11 9 -12 10 -17 2 -17 -7 0 -9 -5 -6 -10 4 -6 12 -7 18 -3
7 4 7 0 -1 -10 -8 -9 -11 -21 -7 -27 3 -5 1 -10 -6 -10 -10 0 -10 -3 -2 -11 8
-8 8 -20 3 -34 -5 -13 -6 -26 -3 -29 4 -4 6 -25 6 -49 -1 -23 4 -48 9 -55 8
-9 6 -11 -8 -6 -15 6 -17 4 -7 -6 7 -8 9 -20 3 -35 -5 -13 -6 -25 -3 -28 10
-11 8 -145 -2 -139 -6 3 -4 -2 4 -11 9 -12 10 -17 2 -17 -7 0 -9 -5 -6 -10 4
-6 12 -7 18 -3 7 4 7 0 -1 -10 -8 -9 -11 -21 -7 -27 3 -5 1 -10 -6 -10 -10 0
-10 -3 -2 -11 8 -8 8 -20 3 -34 -5 -13 -6 -26 -3 -29 4 -4 6 -25 6 -49 -1 -23
4 -48 9 -55 8 -9 6 -11 -8 -6 -15 6 -17 4 -7 -6 7 -8 9 -20 3 -35 -5 -13 -6
-25 -3 -28 10 -11 8 -145 -2 -139 -6 3 -4 -2 4 -11 9 -12 10 -17 2 -17 -7 0
-9 -5 -6 -10 4 -6 12 -7 18 -3 7 4 7 0 -1 -10 -8 -9 -11 -21 -7 -27 3 -5 1
-10 -6 -10 -10 0 -10 -3 -2 -11 8 -8 8 -20 3 -34 -5 -13 -6 -26 -3 -29 4 -4 6
-25 6 -49 -1 -23 4 -48 9 -55 8 -9 6 -11 -8 -6 -15 6 -17 4 -7 -6 7 -8 9 -20
3 -35 -5 -13 -6 -25 -3 -28 10 -11 8 -145 -2 -139 -6 3 -4 -2 4 -11 9 -12 10
-17 2 -17 -7 0 -9 -5 -6 -10 4 -6 12 -7 18 -3 7 4 7 0 -1 -10 -8 -9 -11 -21
-7 -27 3 -5 1 -10 -6 -10 -10 0 -10 -3 -2 -11 8 -8 8 -20 3 -34 -5 -13 -6 -26
-3 -29 4 -4 6 -25 6 -49 -1 -23 4 -48 9 -55 8 -9 6 -11 -8 -6 -15 6 -17 4 -7
-6 7 -8 9 -20 3 -35 -5 -13 -6 -25 -3 -28 10 -11 8 -145 -2 -139 -6 3 -4 -2 4
-11 9 -12 10 -17 2 -17 -7 0 -9 -5 -6 -10 4 -6 12 -7 18 -3 7 4 7 0 -1 -10 -8
-9 -11 -21 -7 -27 3 -5 1 -10 -5 -10 -6 0 -8 -5 -4 -12 11 -18 12 -48 2 -48
-5 0 -6 -5 -3 -10 4 -6 12 -7 18 -3 7 4 7 0 -1 -10 -8 -9 -11 -21 -7 -27 3 -5
1 -10 -6 -10 -8 0 -8 -4 1 -15 10 -12 10 -15 -1 -15 -11 0 -11 -2 1 -10 13 -9
13 -11 0 -20 -14 -9 -8 -14 15 -11 6 1 1 -6 -9 -14 -20 -15 -20 -15 0 -15 18
-1 18 -2 2 -14 -13 -10 -15 -15 -6 -24 9 -9 9 -12 -2 -12 -13 0 -13 -2 0 -10
13 -9 13 -11 0 -20 -14 -9 -8 -14 15 -11 6 1 1 -6 -9 -14 -20 -15 -20 -15 0
-15 18 -1 18 -1 1 -14 -12 -9 -14 -16 -8 -21 6 -3 11 -11 11 -16 0 -6 -6 -7
-12 -3 -9 5 -9 2 1 -9 9 -12 10 -17 2 -17 -7 0 -9 -5 -6 -10 4 -6 11 -8 16 -5
5 3 6 -1 3 -9 -3 -9 -11 -13 -18 -9 -6 4 -5 -1 3 -10 11 -14 11 -17 0 -17 -10
0 -10 -3 -1 -12 16 -16 15 -31 -1 -22 -8 5 -8 2 2 -9 9 -12 10 -17 2 -17 -7 0
-9 -5 -6 -10 4 -6 12 -7 18 -3 7 4 7 0 -1 -10 -8 -9 -11 -21 -7 -27 3 -5 1
-10 -5 -10 -6 0 -8 -5 -5 -10 4 -6 12 -8 18 -4 7 3 3 -2 -7 -10 -11 -9 -14
-16 -8 -16 7 0 12 -5 12 -11 0 -5 -4 -7 -10 -4 -6 3 -7 -1 -4 -9 3 -9 11 -13
18 -10 6 3 2 -2 -8 -10 -20 -16 -20 -16 0 -16 19 -1 19 -1 0 -15 -18 -14 -15
-19 9 -16 6 1 2 -5 -8 -13 -14 -10 -15 -15 -5 -19 10 -4 10 -8 -2 -16 -14 -10
-8 -15 15 -12 6 1 1 -6 -9 -14 -20 -15 -20 -15 0 -15 18 -1 18 -1 1 -14 -12
-9 -14 -16 -8 -21 6 -3 11 -11 11 -16 0 -6 -6 -7 -13 -3 -8 5 -8 2 2 -9 9 -12
10 -17 2 -17 -7 0 -9 -5 -6 -10 4 -6 11 -8 16 -5 5 3 6 -1 3 -9 -3 -9 -11 -13
-18 -9 -6 4 -5 -1 3 -10 11 -14 11 -17 0 -17 -10 0 -10 -3 -1 -12 16 -16 15
-31 0 -22 -9 5 -9 2 1 -9 9 -12 10 -17 2 -17 -7 0 -9 -5 -6 -10 4 -6 12 -7 18
-3 7 4 7 0 -1 -10 -8 -9 -11 -21 -7 -27 3 -5 1 -10 -5 -10 -6 0 -8 -5 -5 -10
4 -6 12 -8 18 -4 7 3 3 -2 -7 -10 -11 -9 -14 -16 -8 -16 7 0 12 -5 12 -11 0
-5 -4 -7 -10 -4 -6 3 -7 -1 -4 -9 3 -9 11 -13 18 -10 6 3 2 -2 -8 -10 -20 -16
-20 -16 0 -16 19 -1 19 -1 0 -15 -18 -14 -15 -19 9 -16 6 1 2 -5 -8 -13 -14
-10 -15 -15 -5 -19 10 -4 10 -8 -2 -16 -14 -10 -8 -15 15 -12 6 1 1 -6 -9 -14
-20 -15 -20 -15 0 -15 18 -1 18 -1 1 -14 -12 -9 -14 -16 -8 -21 6 -3 11 -11
11 -16 0 -6 -6 -7 -13 -3 -8 5 -8 2 2 -9 9 -12 10 -17 2 -17 -7 0 -9 -5 -6
-10 4 -6 11 -8 16 -5 5 3 6 -1 3 -9 -3 -9 -11 -13 -18 -9 -6 4 -5 -1 3 -10 11
-14 11 -17 0 -17 -10 0 -10 -3 -1 -12 16 -16 15 -31 0 -22 -9 5 -9 2 1 -9 9
-12 10 -17 2 -17 -7 0 -9 -5 -6 -10 4 -6 12 -7 18 -3 7 4 7 0 -1 -10 -8 -9
-11 -21 -7 -27 3 -5 1 -10 -5 -10 -6 0 -8 -5 -5 -10 4 -6 12 -8 18 -4 7 3 3
-2 -7 -10 -11 -9 -14 -16 -8 -16 7 0 12 -5 12 -11 0 -5 -4 -7 -10 -4 -6 3 -7
-1 -4 -9 3 -9 11 -13 18 -10 6 3 2 -2 -8 -10 -20 -16 -20 -16 0 -16 19 -1 19
-1 0 -15 -18 -14 -15 -19 9 -16 6 1 2 -5 -8 -13 -14 -10 -15 -15 -5 -19 10 -4
10 -8 -2 -16 -14 -10 -8 -15 15 -12 6 1 1 -6 -9 -14 -20 -15 -20 -15 0 -15 18
-1 18 -1 1 -14 -12 -9 -14 -16 -8 -21 6 -3 11 -11 11 -16 0 -6 -6 -7 -12 -3
-9 5 -9 2 1 -9 9 -12 10 -17 2 -17 -7 0 -9 -5 -6 -10 4 -6 11 -8 16 -5 5 3 6
-1 3 -9 -3 -9 -11 -13 -18 -9 -6 4 -5 -1 3 -10 11 -14 11 -17 0 -17 -10 0 -10
-3 -1 -12 16 -16 15 -31 -1 -22 -8 5 -8 2 2 -9 9 -12 10 -17 2 -17 -7 0 -9 -5
-6 -10 4 -6 12 -7 18 -3 7 4 7 0 -1 -10 -8 -9 -11 -21 -7 -27 3 -5 1 -10 -5
-10 -6 0 -8 -5 -5 -10 4 -6 12 -8 18 -4 7 3 3 -2 -7 -10 -11 -9 -14 -16 -8
-16 7 0 12 -5 12 -11 0 -5 -4 -7 -10 -4 -6 3 -7 -1 -4 -9 3 -9 11 -13 18 -10
6 3 2 -2 -8 -10 -18 -15 -18 -16 -2 -16 9 0 14 -5 11 -10 -4 -6 -11 -8 -16 -5
-5 3 -6 -1 -3 -9 3 -9 11 -13 18 -10 6 3 2 -2 -8 -10 -11 -9 -14 -16 -8 -16 7
0 12 -5 12 -11 0 -5 -4 -7 -10 -4 -6 3 -7 -1 -4 -9 3 -9 11 -13 18 -10 6 3 2
-2 -8 -10 -18 -15 -18 -16 -2 -16 9 0 14 -5 11 -10 -4 -6 -11 -7 -17 -4 -6 4
-6 -1 1 -14 14 -27 14 -35 -1 -26 -9 5 -9 2 1 -9 9 -12 10 -17 2 -17 -7 0 -9
-5 -6 -10 4 -6 10 -8 14 -6 4 3 7 -5 6 -16 -1 -12 -7 -24 -14 -26 -9 -3 -9 -7
0 -18 9 -11 8 -14 -2 -14 -11 0 -11 -2 1 -10 13 -9 13 -11 0 -20 -14 -9 -8
-14 15 -11 6 1 1 -6 -9 -14 -20 -15 -20 -15 0 -15 19 -1 19 -1 0 -15 -19 -14
-19 -15 -1 -15 18 0 18 -1 -1 -15 -17 -13 -17 -14 -1 -15 9 0 17 -4 17 -10 0
-5 -8 -6 -17 -3 -15 6 -16 4 -6 -8 10 -12 10 -18 1 -27 -9 -9 -8 -12 5 -12 9
0 17 -4 17 -10 0 -5 -8 -7 -17 -4 -15 5 -15 3 1 -10 20 -16 20 -16 0 -16 -18
-1 -18 -1 -2 -14 23 -17 23 -27 1 -19 -16 6 -16 5 -4 -10 11 -14 11 -17 0 -17
-10 -1 -9 -4 3 -14 22 -17 23 -27 2 -19 -14 5 -15 3 -5 -15 14 -27 14 -35 -2
-26 -8 5 -8 2 2 -9 9 -12 10 -17 2 -17 -7 0 -9 -5 -6 -10 4 -6 10 -8 14 -6 4
3 7 -5 6 -16 -1 -12 -7 -24 -14 -26 -9 -3 -9 -7 0 -18 9 -11 8 -14 -2 -14 -11
0 -11 -2 1 -10 13 -9 13 -11 0 -20 -14 -9 -8 -14 15 -11 6 1 1 -6 -9 -14 -20
-15 -20 -15 0 -15 19 -1 19 -1 0 -15 -19 -14 -19 -15 -1 -15 18 0 18 -1 -1
-15 -17 -13 -17 -14 -1 -15 9 0 17 -4 17 -10 0 -5 -8 -6 -18 -3 -14 6 -15 4
-5 -8 10 -12 10 -18 1 -27 -9 -9 -8 -12 5 -12 9 0 17 -4 17 -10 0 -5 -8 -7
-18 -4 -14 5 -14 3 2 -10 20 -16 20 -16 0 -16 -18 -1 -18 -1 -2 -14 23 -17 23
-27 0 -19 -15 6 -15 5 -3 -10 11 -14 11 -17 0 -17 -10 -1 -9 -4 3 -14 22 -17
23 -27 2 -19 -14 5 -15 3 -5 -15 9 -17 9 -22 -1 -22 -9 0 -9 -3 2 -10 13 -9
13 -11 0 -20 -14 -9 -8 -14 15 -11 6 1 1 -6 -9 -14 -18 -14 -18 -15 -2 -15 9
0 14 -5 11 -10 -4 -6 -12 -8 -18 -4 -7 3 -4 -1 5 -8 15 -13 15 -15 0 -25 -16
-11 -16 -12 1 -12 9 -1 17 -5 17 -11 0 -5 -8 -6 -18 -3 -15 6 -15 5 -3 -10 11
-14 11 -17 0 -17 -10 -1 -9 -4 3 -14 23 -17 23 -27 1 -19 -16 6 -16 4 1 -15
11 -12 16 -25 13 -29 -4 -3 -7 -1 -7 5 0 7 -4 12 -8 12 -5 0 -7 -12 -5 -28 8
-71 7 -222 -2 -222 -6 0 -3 -5 5 -10 13 -9 13 -11 0 -20 -14 -9 -8 -14 15 -11
6 1 1 -6 -9 -14 -18 -14 -18 -15 -2 -15 9 0 14 -5 11 -10 -4 -6 -12 -8 -18 -4
-7 3 -4 -1 5 -8 15 -13 15 -15 0 -25 -16 -11 -16 -12 1 -12 9 -1 17 -5 17 -11
0 -5 -8 -6 -17 -3 -16 6 -16 5 -4 -10 11 -14 11 -17 0 -17 -10 -1 -9 -4 3 -14
23 -17 23 -27 1 -19 -16 6 -16 4 1 -15 11 -12 16 -25 13 -29 -4 -3 -7 -1 -7 5
0 7 -4 12 -8 12 -5 0 -7 -12 -5 -28 8 -71 7 -222 -2 -222 -6 0 -3 -5 5 -10 13
-9 13 -11 0 -20 -14 -9 -8 -14 15 -11 6 1 1 -6 -9 -14 -18 -14 -18 -15 -2 -15
9 0 14 -5 11 -10 -4 -6 -12 -8 -18 -4 -7 3 -4 -1 5 -8 15 -13 15 -15 0 -25
-16 -11 -16 -12 1 -12 9 -1 17 -5 17 -11 0 -5 -8 -6 -18 -3 -15 6 -15 5 -3
-10 11 -14 11 -17 0 -17 -10 -1 -9 -4 3 -14 23 -17 23 -27 1 -19 -16 6 -16 4
1 -15 11 -12 16 -25 13 -29 -4 -3 -7 -1 -7 5 0 7 -4 12 -8 12 -5 0 -7 -12 -5
-27 8 -72 7 -223 -2 -223 -6 0 -3 -5 5 -10 13 -9 13 -11 0 -20 -14 -9 -8 -14
15 -11 6 1 1 -6 -9 -14 -18 -14 -18 -15 -2 -15 9 0 14 -5 11 -10 -4 -6 -12 -8
-18 -4 -7 3 -4 -1 5 -8 15 -13 15 -15 0 -25 -16 -11 -16 -12 1 -12 9 -1 17 -5
17 -11 0 -5 -8 -6 -17 -3 -16 6 -16 5 -4 -10 11 -14 11 -17 0 -17 -10 -1 -9
-4 3 -14 23 -17 23 -27 0 -19 -15 6 -15 4 2 -15 11 -12 16 -25 13 -29 -4 -3
-7 -1 -7 5 0 7 -4 12 -8 12 -5 0 -7 -12 -5 -27 8 -72 7 -223 -2 -223 -6 0 -3
-5 5 -10 13 -9 13 -11 0 -20 -14 -9 -8 -14 15 -11 6 1 1 -6 -9 -14 -18 -14
-18 -15 -2 -15 9 0 14 -5 11 -10 -4 -6 -12 -8 -18 -4 -7 3 -4 -1 5 -8 15 -13
15 -15 0 -25 -16 -11 -16 -12 1 -12 9 -1 17 -5 17 -11 0 -5 -8 -6 -18 -3 -15
6 -15 5 -3 -10 11 -14 11 -17 0 -17 -10 -1 -9 -4 3 -14 23 -17 23 -27 0 -19
-15 6 -15 4 2 -15 11 -12 16 -25 13 -29 -4 -3 -7 -1 -7 5 0 7 -4 12 -8 12 -5
0 -7 -12 -5 -27 8 -72 7 -223 -2 -223 -6 0 -3 -5 5 -10 13 -9 13 -11 0 -20
-14 -9 -8 -14 15 -11 6 1 1 -6 -9 -14 -18 -14 -18 -15 -2 -15 9 0 14 -5 11
-10 -4 -6 -12 -8 -18 -4 -7 3 -3 -2 7 -10 20 -16 20 -16 0 -16 -18 -1 -18 -1
-2 -14 23 -17 23 -27 1 -19 -16 6 -16 5 -4 -10 7 -9 9 -17 4 -17 -12 0 -4 -50
11 -69 8 -11 8 -13 0 -8 -12 7 -26 -27 -16 -38 10 -10 9 -45 -1 -45 -5 0 -4
-6 2 -14 9 -11 9 -15 -1 -19 -10 -4 -10 -6 0 -6 6 -1 12 -6 12 -12 0 -5 -4 -7
-10 -4 -6 3 -7 -1 -4 -9 3 -9 11 -13 18 -10 6 3 2 -2 -8 -10 -17 -14 -18 -16
-3 -16 9 0 17 -4 17 -10 0 -5 -7 -7 -16 -3 -14 5 -15 3 -5 -15 8 -15 8 -22 -2
-25 -9 -4 -9 -6 1 -6 6 -1 12 -6 12 -12 0 -5 -4 -7 -10 -4 -6 3 -7 -1 -4 -9 3
-9 11 -13 18 -10 6 3 2 -2 -8 -10 -17 -14 -18 -16 -3 -16 9 0 17 -4 17 -10 0
-5 -8 -7 -17 -4 -15 5 -15 3 1 -10 16 -13 17 -16 4 -16 -19 0 -14 -34 11 -65
10 -13 10 -15 1 -7 -8 6 -17 12 -21 12 -9 0 2 -52 15 -69 8 -11 8 -13 0 -8
-12 7 -26 -27 -16 -38 10 -10 9 -45 -1 -45 -5 0 -4 -6 2 -14 9 -11 9 -15 -1
-19 -10 -4 -10 -6 0 -6 6 -1 12 -6 12 -12 0 -5 -4 -7 -10 -4 -6 3 -7 -1 -4 -9
3 -9 11 -13 18 -10 6 3 2 -2 -8 -10 -17 -14 -18 -16 -3 -16 9 0 17 -4 17 -10
0 -5 -7 -7 -16 -3 -14 5 -15 3 -5 -15 8 -15 8 -22 -2 -25 -9 -4 -9 -6 1 -6 6
-1 12 -6 12 -12 0 -5 -4 -7 -10 -4 -6 3 -7 -1 -4 -9 3 -9 11 -13 18 -10 6 3 2
-2 -8 -10 -17 -14 -18 -16 -3 -16 9 0 17 -4 17 -10 0 -5 -8 -7 -17 -4 -15 5
-15 3 1 -10 16 -13 17 -16 4 -16 -19 0 -14 -34 11 -65 10 -13 10 -15 1 -7 -8
6 -17 12 -21 12 -9 0 2 -52 15 -69 8 -11 8 -13 0 -8 -12 7 -26 -27 -16 -38 10
-10 9 -45 -1 -45 -5 0 -4 -6 2 -14 9 -11 9 -15 -1 -19 -10 -4 -10 -6 0 -6 6
-1 12 -6 12 -12 0 -5 -4 -7 -10 -4 -6 3 -7 -1 -4 -9 3 -9 11 -13 18 -10 6 3 2
-2 -8 -10 -17 -14 -18 -16 -3 -16 9 0 17 -4 17 -10 0 -5 -7 -7 -16 -3 -14 5
-15 3 -5 -15 8 -15 8 -22 -2 -25 -9 -4 -9 -6 1 -6 6 -1 12 -6 12 -12 0 -5 -4
-7 -10 -4 -6 3 -7 -1 -4 -9 3 -9 11 -13 18 -10 6 3 2 -2 -8 -10 -17 -14 -18
-16 -3 -16 9 0 17 -4 17 -10 0 -5 -8 -7 -17 -4 -15 5 -15 3 1 -10 16 -13 17
-16 4 -16 -19 0 -14 -34 11 -65 10 -13 10 -15 1 -7 -8 6 -17 12 -21 12 -9 0 2
-52 15 -69 8 -11 8 -13 0 -8 -12 7 -26 -27 -16 -38 10 -10 9 -45 -1 -45 -5 0
-4 -6 2 -14 9 -11 9 -15 -1 -19 -10 -4 -10 -6 0 -6 6 -1 12 -6 12 -12 0 -5 -4
-7 -10 -4 -6 3 -7 -1 -4 -9 3 -9 11 -13 18 -10 6 3 2 -2 -8 -10 -17 -14 -18
-16 -3 -16 9 0 17 -4 17 -10 0 -5 -7 -7 -16 -3 -14 5 -15 3 -5 -15 8 -15 8
-22 -2 -25 -9 -4 -9 -6 1 -6 6 -1 12 -6 12 -12 0 -5 -4 -7 -10 -4 -6 3 -7 -1
-4 -9 3 -9 11 -13 18 -10 6 3 2 -2 -8 -10 -17 -14 -18 -16 -3 -16 9 0 17 -4
17 -10 0 -5 -8 -7 -17 -4 -15 5 -15 3 1 -10 16 -13 17 -16 4 -16 -19 0 -14
-34 11 -65 10 -13 10 -15 1 -8 -8 7 -17 13 -21 13 -9 0 2 -52 15 -69 8 -11 8
-13 0 -8 -12 7 -26 -27 -16 -38 10 -10 9 -45 -1 -45 -5 0 -4 -6 2 -14 9 -11 9
-15 -1 -19 -10 -4 -10 -6 0 -6 6 -1 12 -6 12 -12 0 -5 -4 -7 -10 -4 -6 3 -7
-1 -4 -9 3 -9 11 -13 18 -10 6 3 2 -2 -8 -10 -17 -14 -18 -16 -3 -16 9 0 17
-4 17 -10 0 -5 -7 -7 -16 -3 -14 5 -15 3 -5 -15 8 -15 8 -22 -2 -25 -9 -4 -9
-6 1 -6 6 -1 12 -6 12 -12 0 -5 -4 -7 -10 -4 -6 3 -7 -1 -4 -9 3 -9 11 -13 18
-10 6 3 2 -2 -8 -10 -17 -14 -18 -16 -3 -16 9 0 17 -4 17 -10 0 -5 -8 -7 -18
-4 -14 5 -14 3 2 -10 16 -13 17 -16 4 -16 -17 0 -14 -33 5 -58 7 -9 6 -11 -7
-6 -11 4 -15 2 -11 -7 10 -28 12 -89 3 -89 -5 0 -6 -5 -3 -10 4 -6 12 -8 18
-4 7 3 3 -2 -7 -10 -18 -15 -18 -16 -2 -16 9 0 14 -5 11 -10 -4 -6 -12 -8 -18
-4 -7 3 -3 -2 7 -10 20 -16 20 -16 0 -16 -17 0 -16 -3 6 -20 l25 -19 -25 6
c-25 6 -25 6 -6 -15 11 -12 16 -25 13 -29 -4 -3 -7 -1 -7 5 0 7 -4 12 -9 12
-5 0 -5 -15 -1 -35 5 -23 4 -36 -4 -39 -7 -3 -7 -5 2 -5 6 -1 12 -6 12 -12 0
-5 -6 -7 -12 -3 -9 5 -9 2 1 -9 9 -12 10 -17 2 -17 -7 0 -9 -5 -6 -10 4 -6 10
-8 14 -6 4 3 8 -1 8 -8 0 -9 -7 -12 -16 -8 -12 4 -12 0 3 -17 14 -15 15 -20 5
-16 -12 4 -14 -5 -9 -60 3 -40 2 -66 -5 -69 -5 -2 -4 -5 3 -5 6 -1 12 -6 12
-12 0 -5 -4 -7 -10 -4 -6 3 -7 -1 -4 -9 3 -9 11 -13 18 -10 6 3 2 -2 -8 -10
-17 -14 -18 -16 -3 -16 9 0 17 -4 17 -10 0 -5 -8 -7 -17 -4 -15 5 -15 3 1 -10
20 -16 20 -16 0 -16 -19 -1 -19 -1 0 -15 18 -13 15 -19 -6 -16 -4 0 -5 -6 -2
-14 4 -8 10 -12 15 -9 5 3 6 -2 3 -10 -3 -9 -9 -14 -13 -11 -6 3 -7 -29 -1
-45 1 -3 1 -18 0 -34 -1 -21 2 -26 12 -21 10 6 11 5 0 -6 -17 -19 -15 -46 6
-59 14 -9 13 -10 -7 -4 -18 5 -22 3 -15 -7 5 -8 7 -22 5 -33 -1 -10 1 -16 7
-13 5 4 9 0 9 -8 0 -8 -3 -12 -6 -11 -3 2 -7 -7 -7 -20 -1 -16 4 -24 15 -24
14 -1 14 -2 -1 -11 -10 -5 -18 -15 -18 -22 0 -7 4 -6 10 3 8 13 10 12 10 -3 0
-11 4 -15 12 -11 7 4 8 3 4 -4 -4 -6 -14 -9 -24 -6 -10 4 -13 3 -6 -3 13 -9
15 -43 2 -43 -4 0 -8 -5 -8 -11 0 -5 4 -8 9 -5 5 3 14 -1 21 -9 7 -8 17 -12
23 -8 6 3 7 1 3 -6 -4 -6 -11 -9 -15 -7 -3 3 -7 -4 -7 -14 0 -15 4 -17 21 -8
18 10 19 10 6 -6 -8 -9 -16 -29 -17 -44 -2 -20 -1 -23 6 -12 7 11 10 11 10 2
0 -8 5 -10 12 -6 7 4 5 -2 -4 -13 -20 -22 -23 -33 -7 -33 5 0 7 5 3 12 -5 7
-3 8 5 4 7 -5 10 -14 7 -22 -3 -8 0 -11 9 -8 10 4 12 0 8 -17 -4 -15 -3 -20 5
-15 8 5 10 1 5 -10 -4 -12 -3 -15 5 -10 7 4 12 2 12 -3 0 -6 -5 -11 -10 -11
-6 0 -1 -9 10 -20 11 -11 20 -29 20 -40 0 -11 5 -20 11 -20 5 0 7 -5 4 -10 -4
-6 -11 -8 -16 -5 -5 3 -6 -1 -3 -9 3 -9 10 -16 16 -16 5 0 6 5 3 10 -3 6 -1
10 6 10 6 0 9 -8 6 -20 -3 -11 -1 -23 5 -26 6 -4 6 -9 -2 -14 -9 -6 -6 -10 9
-15 12 -3 18 -11 15 -17 -5 -7 -2 -8 5 -4 8 5 14 0 18 -13 3 -11 9 -18 14 -15
5 3 9 -2 9 -11 0 -9 -4 -14 -9 -10 -5 3 -12 1 -15 -4 -7 -11 13 -9 32 3 7 4
16 5 19 2 4 -3 2 -6 -4 -6 -5 0 -10 -7 -10 -15 0 -11 4 -12 14 -4 18 16 16 4
-3 -15 -13 -14 -13 -16 -1 -16 9 0 18 -6 21 -12 3 -7 3 -2 0 11 -4 16 -3 21 5
17 6 -4 11 -18 11 -32 0 -18 5 -24 17 -22 17 3 19 -1 22 -38 0 -9 6 -12 13 -8
7 5 9 2 5 -9 -4 -11 -2 -14 9 -10 21 8 54 -25 46 -45 -5 -15 -3 -15 10 -4 14
11 16 10 12 -10 -2 -13 -2 -17 2 -10 7 16 25 16 21 0 -1 -7 4 -12 11 -10 8 1
11 -2 7 -8 -4 -6 -14 -9 -22 -5 -13 4 -14 3 -3 -10 14 -17 35 -21 25 -5 -3 6
1 10 9 10 9 0 15 -3 15 -7 -3 -20 2 -34 11 -28 14 9 12 -8 -3 -25 -10 -12 -9
-12 4 -2 13 10 19 9 28 -1 6 -8 9 -16 6 -19 -3 -2 5 -4 18 -4 13 1 21 -4 19
-12 -2 -9 2 -11 10 -6 7 5 21 10 31 11 15 3 16 1 5 -11 -10 -10 -15 -11 -21
-2 -6 7 -7 6 -5 -3 2 -8 12 -15 21 -17 11 -1 14 2 10 9 -5 9 -3 9 8 1 8 -5 21
-10 29 -9 17 1 31 -15 24 -27 -3 -4 -11 -8 -17 -8 -8 0 -8 3 1 9 11 7 11 9 0
14 -9 3 -14 -3 -14 -18 0 -16 4 -21 15 -17 10 4 12 1 6 -8 -5 -9 -4 -11 4 -6
6 4 9 12 6 17 -4 5 5 8 19 7 13 -1 22 -6 20 -10 -3 -5 -11 -5 -17 -1 -8 4 -7
1 1 -9 13 -16 35 -18 48 -5 4 4 2 7 -5 7 -7 0 -9 5 -5 11 12 20 23 -13 12 -35
-6 -12 -7 -18 -3 -13 5 4 19 0 33 -9 13 -9 22 -12 19 -7 -3 5 4 15 16 23 21
12 21 12 7 -5 -14 -17 -13 -18 4 -12 13 5 27 0 44 -15 14 -13 22 -17 18 -11
-4 7 -2 13 3 13 6 0 11 -5 11 -11 0 -5 4 -7 10 -4 6 3 7 -1 4 -10 -5 -11 -2
-14 10 -9 9 3 13 11 9 18 -4 8 -2 8 7 -1 7 -6 19 -9 26 -6 8 3 14 0 14 -7 0
-6 -4 -8 -10 -5 -5 3 -10 -1 -10 -9 0 -20 23 -16 32 4 6 13 7 13 7 0 1 -21 38
-43 47 -28 5 7 3 8 -6 3 -8 -5 -11 -4 -6 3 4 6 14 8 23 5 12 -5 14 -3 8 7 -5
9 -4 11 3 6 9 -5 9 -13 2 -26 -7 -13 -7 -21 2 -26 7 -4 10 -4 6 1 -4 4 -3 14
3 21 9 11 16 11 33 2 11 -6 22 -9 23 -7 1 2 5 0 10 -5 5 -5 2 -6 -6 -1 -10 6
-12 4 -7 -4 9 -13 21 -6 21 11 0 6 7 13 15 15 11 3 11 2 3 -4 -8 -6 -9 -14 -3
-23 9 -13 10 -13 10 0 0 13 1 13 10 0 9 -13 10 -13 11 0 1 8 1 19 0 23 -1 5 3
6 8 2 6 -3 8 -11 5 -19 -3 -7 2 -13 11 -13 8 0 15 5 15 11 0 7 3 7 8 1 4 -5
13 -11 21 -13 12 -3 12 -1 0 15 -11 15 -10 15 9 -2 20 -16 26 -17 44 -6 11 7
17 8 13 2 -9 -15 8 -14 24 2 11 9 13 9 7 0 -4 -7 -3 -13 1 -13 5 0 15 6 22 13
10 8 12 8 7 0 -8 -15 33 -14 53 1 11 8 13 8 7 -1 -9 -17 6 -17 23 -1 11 10 13
10 7 1 -9 -17 6 -17 23 -1 10 9 12 9 7 1 -8 -15 33 -14 53 1 11 8 13 8 7 -1
-9 -17 6 -17 23 -1 8 8 11 8 8 2 -4 -7 3 -11 18 -11 16 0 22 4 18 11 -4 6 1 5
10 -3 14 -11 20 -11 34 0 10 8 14 9 10 2 -9 -15 32 -14 52 1 11 8 13 8 7 -1
-9 -17 6 -17 23 -1 11 10 13 10 7 1 -4 -7 -2 -13 3 -13 6 0 11 6 11 13 0 8 3
8 9 -2 8 -13 12 -13 27 0 11 9 15 9 10 2 -9 -17 6 -17 23 -1 11 10 13 10 7 1
-4 -7 -3 -13 1 -13 5 0 15 6 22 13 11 9 12 9 7 0 -5 -9 1 -12 18 -11 15 1 26
7 26 13 0 5 5 3 10 -5 9 -13 10 -13 10 0 0 12 2 12 9 2 9 -15 42 -13 53 3 5 6
8 4 8 -5 0 -13 1 -13 10 0 6 10 10 11 10 3 0 -7 7 -13 16 -13 8 0 13 4 10 9
-4 5 2 8 11 6 10 -2 18 -4 18 -5 0 -9 51 -7 57 2 5 9 8 9 8 1 0 -13 18 -12 39
1 10 6 12 5 7 -2 -5 -8 1 -11 18 -10 15 1 26 7 26 13 0 5 5 3 10 -5 9 -13 10
-13 10 0 0 12 2 12 9 2 9 -15 42 -13 53 3 5 6 8 4 8 -5 0 -13 1 -13 10 0 6 10
10 11 10 3 0 -7 7 -13 16 -13 8 0 13 4 10 9 -4 5 2 8 11 6 10 -2 18 -4 18 -5
0 -9 51 -7 57 2 4 7 8 8 8 3 0 -15 50 -17 50 -2 0 8 3 7 9 -2 8 -13 12 -13 27
0 11 9 15 9 10 2 -9 -17 6 -17 23 -1 8 8 11 8 8 2 -4 -7 3 -12 18 -12 14 0 22
4 19 9 -3 5 -1 9 5 9 5 0 11 -6 14 -12 3 -10 8 -9 22 2 10 8 16 10 12 4 -4 -7
2 -11 18 -11 15 0 22 4 18 11 -3 6 0 6 8 -2 15 -14 33 -17 25 -4 -3 5 1 9 9 9
8 0 12 -4 10 -7 -3 -4 6 -7 20 -7 15 0 22 4 18 11 -3 6 0 6 8 -2 17 -16 32
-16 23 1 -6 9 -4 9 7 -1 15 -14 33 -17 25 -4 -3 5 1 9 9 9 8 0 12 -4 10 -7 -3
-4 6 -7 20 -7 15 0 22 4 18 11 -3 6 0 6 8 -2 17 -16 32 -16 23 1 -6 9 -4 9 7
1 20 -15 61 -16 53 -1 -5 8 -3 8 7 -1 16 -15 33 -16 23 0 -5 8 -3 8 7 2 17
-11 91 -15 84 -5 -2 4 2 8 10 8 8 0 12 -4 10 -7 -3 -4 6 -7 20 -7 15 0 22 4
18 11 -3 6 0 6 8 -2 17 -16 32 -16 23 1 -5 7 0 6 11 -3 14 -11 19 -12 22 -2 3
6 9 12 14 12 6 0 8 -4 5 -9 -3 -5 5 -8 19 -8 16 0 22 4 18 11 -4 6 1 5 11 -3
14 -12 19 -12 26 -2 6 11 9 11 13 0 4 -12 7 -11 16 1 7 10 11 11 11 3 0 -7 5
-13 11 -13 5 0 7 6 3 13 -5 7 -1 7 10 -2 14 -12 19 -12 26 -2 6 11 8 11 12 0
4 -12 8 -11 23 1 10 8 16 10 12 4 -4 -7 12 -11 48 -11 36 0 52 4 48 11 -3 6 0
5 8 -2 15 -14 33 -17 25 -4 -3 5 1 9 9 9 8 0 12 -4 10 -7 -3 -4 6 -7 20 -7 15
0 22 4 18 11 -3 6 0 6 8 -2 17 -16 32 -16 23 1 -5 7 0 6 11 -3 14 -11 19 -12
22 -2 3 6 9 12 14 12 6 0 7 -4 4 -10 -9 -14 8 -12 24 2 11 10 12 10 7 1 -5 -9
1 -12 18 -11 15 1 26 7 26 13 0 5 5 3 10 -5 9 -13 10 -13 10 0 0 12 2 12 9 2
9 -15 42 -13 53 3 5 6 8 4 8 -5 0 -13 1 -13 10 0 6 10 10 11 10 3 0 -7 7 -13
16 -13 8 0 13 4 10 9 -4 5 2 8 11 6 10 -2 18 -4 18 -5 0 -9 51 -7 57 2 5 9 8
9 8 1 0 -13 18 -12 39 1 10 6 12 5 7 -2 -5 -8 1 -11 18 -10 15 1 26 7 26 13 0
5 5 3 10 -5 9 -13 10 -13 10 0 0 12 2 12 9 2 9 -15 42 -13 53 3 5 6 8 4 8 -5
0 -13 1 -13 10 0 6 10 10 11 10 3 0 -7 7 -13 16 -13 8 0 13 4 10 9 -4 5 2 8
11 6 10 -2 18 -4 18 -5 0 -1 12 -4 28 -6 18 -3 27 0 27 8 0 8 3 9 8 3 10 -14
52 -15 52 -1 0 6 4 5 9 -3 8 -13 12 -13 27 0 11 9 15 9 10 2 -9 -17 6 -17 23
-1 11 10 13 10 7 1 -4 -7 -2 -13 3 -13 6 0 11 6 11 13 0 8 3 8 9 -2 8 -12 12
-13 26 -1 12 10 19 10 27 2 16 -16 31 -15 22 1 -6 9 -4 9 7 1 20 -15 61 -16
52 -1 -4 7 1 6 11 -2 14 -12 19 -12 26 -2 6 11 9 11 13 0 4 -12 7 -11 16 1 7
10 11 11 11 3 0 -7 5 -13 11 -13 5 0 7 6 3 13 -5 7 -1 7 10 -2 14 -12 19 -12
26 -2 6 11 9 11 13 0 5 -12 7 -12 15 0 8 11 10 11 14 0 4 -12 7 -12 21 0 14
11 20 11 33 0 13 -10 17 -10 24 0 6 11 8 11 12 0 4 -12 8 -11 23 1 11 9 16 10
11 3 -9 -17 6 -17 23 -1 11 10 13 10 7 1 -4 -7 -2 -13 3 -13 6 0 11 6 11 13 0
8 3 8 9 -2 8 -13 12 -13 27 0 11 9 15 9 10 2 -4 -7 -2 -13 3 -13 6 0 11 6 11
13 0 8 3 8 9 -2 8 -12 12 -12 25 -2 13 11 19 11 32 0 13 -10 17 -10 24 0 6 11
8 11 12 0 4 -12 8 -11 23 1 11 9 16 10 11 3 -9 -17 6 -17 23 -1 11 10 13 10 7
1 -4 -7 -2 -13 3 -13 6 0 11 6 11 13 0 8 3 8 9 -2 8 -13 12 -13 27 0 11 9 15
9 10 2 -9 -17 6 -17 23 -1 10 9 12 9 7 1 -8 -15 33 -14 53 1 11 8 13 8 7 -1
-9 -17 6 -17 23 -1 8 8 11 8 8 2 -4 -7 3 -11 18 -11 16 0 22 4 18 11 -4 6 1 5
10 -3 14 -11 20 -11 34 0 10 8 14 9 10 2 -9 -15 32 -14 52 1 11 8 13 8 7 -1
-9 -17 6 -17 23 -1 11 10 13 10 7 1 -4 -7 -2 -13 3 -13 6 0 11 6 11 13 0 8 3
8 9 -2 8 -13 12 -13 27 0 11 9 15 9 10 2 -9 -17 6 -17 23 -1 11 10 13 10 7 1
-9 -17 6 -17 23 -1 11 10 12 10 7 1 -5 -9 1 -12 18 -11 15 1 26 7 26 13 0 5 5
3 10 -5 9 -13 10 -13 10 0 0 12 2 12 9 2 9 -15 42 -13 53 3 5 6 8 4 8 -5 0
-13 1 -13 10 0 6 10 10 11 10 3 0 -7 7 -13 16 -13 8 0 13 4 10 9 -4 5 2 8 11
6 10 -2 18 -4 18 -5 0 -9 51 -7 57 2 5 9 8 9 8 1 0 -13 18 -12 39 1 10 6 12 5
7 -2 -5 -8 1 -11 18 -10 15 1 26 7 26 13 0 5 5 3 10 -5 9 -13 10 -13 10 0 0
12 2 12 9 2 9 -15 42 -13 53 3 5 6 8 4 8 -5 0 -13 1 -13 10 0 6 10 10 11 10 3
0 -7 7 -13 16 -13 8 0 13 4 10 9 -4 5 2 8 11 6 10 -2 18 -4 18 -5 0 -9 51 -7
57 2 4 7 8 8 8 3 0 -15 50 -17 50 -2 0 8 3 7 9 -2 8 -13 12 -13 27 0 11 9 15
9 10 2 -9 -17 6 -17 23 -1 8 8 11 8 8 2 -4 -7 3 -11 18 -11 14 0 22 3 19 8 -3
5 -1 9 5 9 5 0 11 -6 14 -12 3 -10 8 -9 22 2 10 8 16 10 12 4 -4 -7 2 -11 18
-11 15 0 22 4 18 11 -3 6 0 6 8 -2 15 -14 33 -17 25 -4 -3 5 1 9 9 9 8 0 12
-4 10 -7 -3 -4 6 -7 20 -7 15 0 22 4 18 11 -3 6 0 6 8 -2 17 -16 32 -16 23 1
-6 9 -4 9 7 -1 15 -14 33 -17 25 -4 -3 5 1 9 9 9 8 0 12 -4 10 -7 -3 -4 6 -7
20 -7 15 0 22 4 18 11 -3 6 0 6 8 -2 17 -16 32 -16 23 1 -6 9 -4 9 7 1 20 -15
61 -16 53 -1 -5 8 -3 8 7 -1 16 -15 33 -16 23 0 -5 8 -3 8 7 2 17 -11 91 -15
84 -5 -2 4 2 8 10 8 8 0 12 -4 10 -7 -3 -4 6 -7 20 -7 15 0 22 4 18 11 -3 6 0
6 8 -1 7 -7 17 -13 22 -13 4 0 5 6 1 13 -5 7 0 6 11 -3 14 -11 19 -12 22 -2 3
6 9 12 14 12 6 0 8 -4 5 -9 -3 -5 5 -8 19 -8 16 0 22 4 18 11 -4 6 1 5 11 -3
14 -12 19 -12 26 -2 6 11 9 11 13 0 4 -12 7 -11 16 1 7 10 11 11 11 3 0 -7 5
-13 11 -13 5 0 7 6 3 13 -5 7 -1 7 10 -2 14 -12 19 -12 26 -2 6 11 8 11 12 0
4 -12 8 -11 23 1 10 8 16 10 12 4 -4 -7 12 -11 48 -11 36 0 52 4 48 11 -3 6 0
5 8 -2 15 -14 33 -17 25 -4 -3 5 1 9 9 9 8 0 12 -4 10 -7 -3 -4 6 -7 20 -7 15
0 22 4 18 11 -3 6 0 6 8 -2 17 -16 32 -16 23 1 -5 7 0 6 11 -3 14 -11 19 -12
22 -2 3 6 9 12 14 12 6 0 7 -5 4 -10 -9 -14 8 -12 24 3 11 9 12 9 7 0 -5 -9 1
-12 18 -11 15 1 26 7 26 13 0 5 5 3 10 -5 9 -13 10 -13 10 0 0 12 2 12 9 2 9
-15 42 -13 53 3 5 6 8 4 8 -5 0 -13 1 -13 10 0 6 10 10 11 10 3 0 -7 7 -13 16
-13 8 0 13 4 10 9 -4 5 2 8 11 6 10 -2 18 -4 18 -5 0 -9 51 -7 57 2 5 9 8 9 8
1 0 -13 18 -12 39 1 10 6 12 5 7 -2 -5 -8 1 -11 18 -10 15 1 26 7 26 13 0 5 5
3 10 -5 9 -13 10 -13 10 0 0 12 2 12 9 2 9 -15 42 -13 53 3 5 6 8 4 8 -5 0
-13 1 -13 10 0 6 10 10 11 10 3 0 -7 7 -13 16 -13 8 0 13 4 10 9 -4 5 2 8 11
6 10 -2 18 -4 18 -5 0 -1 12 -4 28 -6 18 -3 27 0 27 8 0 8 3 9 8 3 10 -14 52
-15 52 -1 0 6 4 5 9 -3 8 -13 12 -13 27 0 11 9 15 9 10 2 -9 -17 6 -17 23 -1
11 10 13 10 7 1 -4 -7 -2 -13 3 -13 6 0 11 6 11 13 0 8 3 8 9 -2 8 -12 12 -13
26 -1 12 10 19 10 27 2 16 -16 31 -15 22 1 -6 9 -4 9 7 1 20 -15 61 -16 52 -1
-4 7 1 6 11 -2 14 -12 19 -12 26 -2 6 11 9 11 13 0 4 -12 7 -11 16 1 7 10 11
11 11 3 0 -7 5 -13 11 -13 5 0 7 6 3 13 -5 7 -1 7 10 -2 14 -12 19 -12 26 -2
6 11 9 11 13 0 5 -12 7 -12 15 0 8 11 10 11 14 0 4 -12 7 -12 21 0 14 11 20
11 33 0 13 -10 17 -10 24 0 6 11 8 11 12 0 4 -12 8 -11 23 1 11 9 16 10 11 3
-9 -17 6 -17 23 -1 11 10 13 10 7 1 -4 -7 -2 -13 3 -13 6 0 11 6 11 13 0 8 3
8 9 -2 8 -13 12 -13 27 0 11 9 15 9 10 2 -4 -7 -2 -13 3 -13 6 0 11 6 11 13 0
8 3 8 9 -2 8 -12 12 -12 25 -2 13 11 19 11 32 0 13 -10 17 -10 24 0 6 11 8 11
12 0 4 -12 8 -11 23 1 11 9 16 10 11 3 -4 -7 -3 -13 1 -13 5 0 15 6 22 13 11
10 13 10 7 0 -4 -7 -2 -13 3 -13 6 0 11 6 11 13 0 8 3 8 9 -2 8 -13 12 -13 27
0 11 9 15 9 10 2 -9 -17 6 -17 23 -1 10 9 12 9 7 1 -8 -15 33 -14 53 1 11 8
13 8 7 -1 -9 -17 6 -17 23 0 8 7 11 7 8 1 -4 -7 3 -11 18 -11 16 0 22 4 18 11
-4 6 1 5 10 -3 14 -11 20 -11 34 0 10 8 14 9 10 2 -9 -15 32 -14 52 1 11 8 13
8 7 -1 -4 -7 -3 -13 1 -13 5 0 15 6 22 13 11 10 13 10 7 0 -4 -7 -2 -13 3 -13
6 0 11 6 11 13 0 8 3 8 9 -2 8 -13 12 -13 27 0 11 9 15 9 10 2 -9 -17 6 -17
23 -1 11 10 13 10 7 1 -9 -17 6 -17 23 0 11 9 12 9 7 0 -5 -9 1 -12 18 -11 15
1 26 7 26 13 0 5 5 3 10 -5 9 -13 10 -13 10 0 0 12 2 12 9 2 9 -15 42 -13 53
3 5 6 8 4 8 -5 0 -13 1 -13 10 0 6 10 10 11 10 3 0 -7 7 -13 16 -13 8 0 13 4
10 9 -4 5 2 8 11 6 10 -2 18 -4 18 -5 0 -9 51 -7 57 2 5 9 8 9 8 1 0 -13 18
-12 39 1 10 6 12 5 7 -2 -5 -8 1 -11 18 -10 15 1 26 7 26 13 0 5 5 3 10 -5 9
-13 10 -13 10 0 0 12 2 12 9 2 9 -15 42 -13 53 3 5 6 8 4 8 -5 0 -13 1 -13 10
0 6 10 10 11 10 3 0 -7 7 -13 16 -13 8 0 13 4 10 9 -4 5 2 8 11 6 10 -2 18 -4
18 -5 0 -9 51 -7 57 2 4 7 8 8 8 3 0 -15 50 -17 50 -2 0 8 3 7 9 -2 8 -13 12
-13 27 0 11 9 15 9 10 1 -9 -16 6 -16 23 1 8 7 11 7 8 1 -4 -7 3 -11 18 -11
14 0 22 3 19 8 -3 5 -1 9 5 9 5 0 11 -6 14 -12 3 -10 8 -9 22 2 10 8 16 10 12
4 -4 -7 2 -11 18 -11 15 0 22 4 18 11 -3 6 0 6 8 -1 15 -15 33 -18 25 -5 -3 5
1 9 9 9 8 0 12 -4 10 -7 -3 -4 6 -7 20 -7 15 0 22 4 18 11 -3 6 0 6 8 -1 7 -7
17 -13 22 -13 4 0 5 6 1 13 -6 10 -4 10 7 0 15 -15 33 -18 25 -5 -3 5 1 9 9 9
8 0 12 -4 10 -7 -3 -4 6 -7 20 -7 15 0 22 4 18 11 -3 6 0 6 8 -1 7 -7 17 -13
22 -13 4 0 5 6 1 13 -6 9 -4 9 7 1 20 -15 61 -16 53 -1 -5 8 -3 8 7 -1 16 -15
33 -16 23 0 -5 8 -3 8 7 2 17 -11 91 -15 84 -5 -2 4 2 8 10 8 8 0 12 -4 10 -7
-3 -4 6 -8 20 -8 15 0 22 5 18 12 -3 6 0 6 8 -1 7 -7 17 -13 22 -13 4 0 5 6 1
13 -5 7 0 6 11 -3 14 -11 19 -12 22 -2 3 6 9 12 14 12 6 0 8 -4 5 -9 -3 -5 5
-8 19 -8 16 0 22 4 18 11 -4 6 1 5 11 -3 14 -12 19 -12 26 -2 6 11 9 11 13 0
4 -12 7 -11 16 1 7 10 11 11 11 3 0 -7 5 -13 11 -13 5 0 7 6 3 13 -5 7 -1 7
10 -2 14 -12 19 -12 26 -2 6 11 8 11 12 0 4 -12 8 -11 23 1 10 8 16 10 12 4
-4 -7 12 -11 48 -11 36 0 52 4 48 11 -3 6 0 5 8 -1 15 -15 33 -18 25 -5 -3 5
1 9 9 9 8 0 12 -4 10 -7 -3 -4 6 -7 20 -7 15 0 22 4 18 11 -3 6 0 6 8 -1 7 -7
17 -13 22 -13 4 0 5 6 1 13 -5 7 0 6 11 -3 14 -11 19 -12 22 -2 3 6 9 12 14
12 6 0 7 -4 4 -10 -9 -14 8 -12 24 3 11 9 12 9 7 0 -5 -9 1 -12 18 -11 15 1
26 7 26 13 0 5 5 3 10 -5 9 -13 10 -13 10 0 0 12 2 12 9 2 9 -15 42 -13 53 3
5 6 8 4 8 -5 0 -13 1 -13 10 0 6 10 10 11 10 3 0 -7 7 -13 16 -13 8 0 13 4 10
9 -4 5 2 8 11 6 10 -2 18 -4 18 -5 0 -9 51 -7 57 2 5 9 8 9 8 1 0 -13 18 -12
39 1 10 6 12 5 7 -2 -5 -8 1 -11 18 -10 15 1 26 7 26 13 0 5 5 3 10 -5 9 -13
10 -13 10 0 0 12 2 12 9 2 9 -15 42 -13 53 3 5 6 8 4 8 -5 0 -13 1 -13 10 0 6
10 10 11 10 3 0 -7 7 -13 16 -13 8 0 13 4 10 9 -4 5 2 8 11 6 10 -2 18 -4 18
-5 0 -1 12 -4 28 -6 18 -3 27 0 27 8 0 8 3 9 8 3 10 -14 52 -15 52 -1 0 6 4 5
9 -3 8 -13 12 -13 27 0 11 9 15 9 10 2 -9 -17 6 -17 23 -1 11 10 13 10 7 1 -4
-7 -2 -13 3 -13 6 0 11 6 11 13 0 8 3 8 9 -2 8 -12 12 -13 26 -1 12 10 19 10
27 2 16 -16 31 -15 22 1 -6 9 -4 9 7 1 20 -15 61 -16 52 -1 -4 7 1 6 11 -2 14
-12 19 -12 26 -2 6 11 9 11 13 0 4 -12 7 -11 16 1 7 10 11 11 11 3 0 -7 5 -13
11 -13 5 0 7 6 3 13 -5 7 -1 7 10 -2 14 -12 19 -12 26 -2 6 11 9 11 13 0 5
-12 7 -12 15 0 8 11 10 11 14 0 4 -12 7 -12 21 0 14 11 20 11 33 0 13 -10 17
-10 24 0 6 11 8 11 12 0 4 -12 8 -11 23 1 11 9 16 10 11 2 -4 -6 -3 -12 1 -12
5 0 15 6 22 12 11 10 13 10 7 1 -4 -7 -2 -13 3 -13 6 0 11 6 11 13 0 8 3 8 9
-2 8 -13 12 -13 27 0 11 9 15 9 10 2 -4 -7 -2 -13 3 -13 6 0 11 6 11 13 0 8 3
8 9 -2 8 -12 12 -12 25 -2 13 11 19 11 32 0 13 -10 17 -10 24 0 6 11 8 11 12
0 4 -12 8 -11 23 1 11 9 16 10 11 3 -9 -17 6 -17 23 -1 11 10 13 10 7 1 -4 -7
-2 -13 3 -13 6 0 11 6 11 13 0 8 3 8 9 -2 8 -13 12 -13 27 0 11 9 15 9 10 2
-9 -17 6 -17 23 -1 10 9 12 9 7 1 -8 -15 33 -14 53 1 11 8 13 8 7 -1 -4 -7 -3
-13 1 -13 5 0 15 6 22 13 8 7 11 7 8 1 -4 -7 3 -11 18 -11 16 0 22 4 18 11 -4
6 1 5 10 -3 14 -11 20 -11 34 0 10 8 14 9 10 2 -9 -15 32 -14 52 1 11 8 13 8
7 -2 -9 -16 6 -16 23 0 11 10 13 10 7 1 -4 -7 -2 -13 3 -13 6 0 11 6 11 13 0
8 3 8 9 -2 8 -13 12 -13 27 0 11 9 15 9 10 2 -9 -17 6 -17 23 -1 11 10 13 10
7 1 -9 -17 6 -17 23 -1 11 10 12 10 7 1 -5 -9 1 -12 18 -11 15 1 26 7 26 13 0
5 5 3 10 -5 9 -13 10 -13 10 0 0 12 2 12 9 2 9 -15 42 -13 53 3 5 6 8 4 8 -5
0 -13 1 -13 10 0 6 10 10 11 10 3 0 -7 7 -13 16 -13 8 0 13 4 10 9 -4 5 2 8
11 6 10 -2 18 -4 18 -5 0 -9 51 -7 57 2 5 9 8 9 8 1 0 -13 18 -12 39 1 10 6
12 5 7 -2 -5 -8 1 -11 18 -10 15 1 26 7 26 13 0 5 5 3 10 -5 9 -13 10 -13 10
0 0 12 2 12 9 2 9 -15 42 -13 53 3 5 6 8 4 8 -5 0 -13 1 -13 10 0 6 10 10 11
10 3 0 -7 7 -13 16 -13 8 0 13 4 10 9 -4 5 2 8 11 6 10 -2 18 -4 18 -5 0 -9
51 -7 57 2 4 7 8 8 8 3 0 -15 50 -17 50 -2 0 8 3 7 9 -2 8 -13 12 -13 27 0 11
9 15 9 10 2 -4 -7 -3 -13 1 -13 5 0 15 6 22 13 8 7 11 7 8 1 -4 -7 3 -11 18
-11 14 0 22 3 19 8 -3 5 -1 9 5 9 5 0 11 -6 14 -12 3 -10 8 -9 22 2 10 8 16
10 12 4 -4 -7 2 -11 18 -11 15 0 22 4 18 11 -3 6 0 6 8 -1 15 -15 33 -18 25
-5 -3 5 1 9 9 9 8 0 12 -4 10 -7 -3 -4 6 -7 20 -7 15 0 22 4 18 11 -3 6 0 6 8
-1 7 -7 17 -13 22 -13 4 0 5 6 1 13 -6 10 -4 10 7 0 15 -15 33 -18 25 -5 -3 5
1 9 9 9 8 0 12 -4 10 -7 -3 -4 6 -7 20 -7 15 0 22 4 18 11 -3 6 0 6 8 -1 17
-17 32 -17 23 0 -6 9 -4 9 7 1 20 -15 61 -16 53 -1 -5 8 -3 8 7 0 16 -16 33
-17 23 -1 -5 8 -3 8 7 2 17 -11 91 -15 84 -5 -2 4 2 8 10 8 8 0 12 -4 10 -7
-3 -4 6 -7 20 -7 15 0 22 4 18 11 -3 6 0 6 8 -1 17 -17 32 -17 23 0 -5 7 0 6
11 -3 14 -11 19 -12 22 -2 3 6 9 12 14 12 6 0 8 -4 5 -9 -3 -5 5 -8 19 -8 16
0 22 4 18 11 -4 6 1 5 11 -3 14 -12 19 -12 26 -2 6 11 9 11 13 0 4 -12 7 -11
16 1 7 10 11 11 11 3 0 -7 5 -13 11 -13 5 0 7 6 3 13 -5 7 -1 7 10 -2 14 -12
19 -12 26 -2 6 11 8 11 12 0 4 -12 8 -11 23 1 10 8 16 10 12 4 -4 -7 12 -11
48 -11 36 0 52 4 48 11 -3 6 0 5 8 -1 15 -15 33 -18 25 -5 -3 5 1 9 9 9 8 0
12 -4 10 -7 -3 -4 6 -7 20 -7 15 0 22 4 18 11 -3 6 0 6 8 -1 7 -7 17 -13 22
-13 4 0 5 6 1 13 -5 7 0 6 11 -3 14 -11 19 -12 22 -2 3 6 9 12 14 12 6 0 7 -5
4 -10 -9 -14 8 -12 24 3 11 9 12 9 7 0 -5 -9 1 -12 18 -11 15 1 26 7 26 13 0
5 5 3 10 -5 9 -13 10 -13 10 0 0 12 2 12 9 2 9 -15 42 -13 53 3 5 6 8 4 8 -5
0 -13 1 -13 10 0 6 10 10 11 10 3 0 -7 7 -13 16 -13 8 0 13 4 10 9 -4 5 2 8
11 6 10 -2 18 -4 18 -5 0 -9 51 -7 57 2 5 9 8 9 8 1 0 -13 18 -12 39 1 10 6
12 5 7 -2 -5 -8 1 -11 18 -10 15 1 26 7 26 13 0 5 5 3 10 -5 9 -13 10 -13 10
0 0 12 2 12 9 2 9 -15 42 -13 53 3 5 6 8 4 8 -5 0 -13 1 -13 10 0 6 10 10 11
10 3 0 -7 7 -13 16 -13 8 0 13 4 10 9 -4 5 2 8 11 6 10 -2 18 -4 18 -5 0 -1
12 -4 28 -6 18 -3 27 0 27 8 0 8 3 9 8 3 10 -14 52 -15 52 -1 0 6 4 5 9 -3 8
-13 12 -13 27 0 11 9 15 9 10 2 -4 -7 -3 -13 1 -13 5 0 15 6 22 13 11 9 13 9
7 0 -4 -7 -2 -13 3 -13 6 0 11 6 11 13 0 8 3 8 9 -2 8 -12 12 -13 26 -1 12 10
19 10 27 2 16 -16 31 -15 22 1 -6 9 -4 9 7 1 20 -15 61 -16 52 -1 -4 7 1 6 11
-2 14 -12 19 -12 26 -2 6 11 9 11 13 0 4 -12 7 -11 16 1 7 10 11 11 11 3 0 -7
5 -13 11 -13 5 0 7 6 3 13 -5 7 -1 7 10 -2 14 -12 19 -12 26 -2 6 11 9 11 13
0 5 -12 7 -12 15 0 8 11 10 11 14 0 4 -12 7 -12 21 0 14 11 20 11 33 0 13 -10
17 -10 24 0 6 11 8 11 12 0 4 -12 8 -11 23 1 11 9 16 10 11 3 -4 -7 -3 -13 1
-13 5 0 15 6 22 13 11 10 13 10 7 0 -4 -7 -2 -13 3 -13 6 0 11 6 11 13 0 8 3
8 9 -2 8 -13 12 -13 27 0 11 9 15 9 10 2 -4 -7 -2 -13 3 -13 6 0 11 6 11 13 0
8 3 8 9 -2 8 -12 12 -12 25 -2 13 11 19 11 32 0 13 -10 17 -10 24 0 6 11 8 11
12 0 4 -12 8 -11 23 1 11 9 16 10 11 3 -9 -17 6 -17 23 -1 11 10 13 10 7 1 -4
-7 -2 -13 3 -13 6 0 11 6 11 13 0 8 3 8 9 -2 8 -13 12 -13 27 0 11 9 15 9 10
2 -4 -7 -3 -13 1 -13 5 0 15 6 22 13 10 8 12 8 7 0 -8 -15 33 -14 53 1 11 8
13 8 7 -1 -4 -7 -3 -13 1 -13 5 0 15 6 22 13 8 7 11 7 8 1 -4 -7 3 -11 18 -11
16 0 22 4 18 11 -4 6 1 5 10 -3 14 -11 20 -11 34 0 10 8 14 9 10 2 -9 -15 32
-14 52 1 11 8 13 8 7 -2 -9 -16 6 -16 23 1 11 10 13 10 7 0 -4 -7 -2 -13 3
-13 6 0 11 6 11 13 0 8 3 8 9 -2 8 -13 12 -13 27 0 11 9 15 9 10 2 -9 -17 6
-17 23 -1 11 10 13 10 7 1 -9 -17 6 -17 23 0 11 9 12 9 7 0 -5 -9 1 -12 18
-11 15 1 26 7 26 13 0 5 5 3 10 -5 9 -13 10 -13 10 0 0 12 2 12 9 2 9 -15 42
-13 53 3 5 6 8 4 8 -5 0 -13 1 -13 10 0 6 10 10 11 10 3 0 -7 7 -13 16 -13 8
0 13 4 10 9 -4 5 2 8 11 6 10 -2 18 -4 18 -5 0 -9 51 -7 57 2 5 9 8 9 8 1 0
-13 18 -12 39 1 10 6 12 5 7 -2 -5 -8 1 -11 18 -10 15 1 26 7 26 13 0 5 5 3
10 -5 9 -13 10 -13 10 0 0 12 2 12 9 2 9 -15 42 -13 53 3 5 6 8 4 8 -5 0 -13
1 -13 10 0 6 10 10 11 10 3 0 -7 7 -13 16 -13 8 0 13 4 10 9 -4 5 2 8 11 6 10
-2 18 -4 18 -5 0 -9 51 -7 57 2 4 7 8 8 8 3 0 -15 50 -17 50 -2 0 8 3 7 9 -2
8 -13 12 -13 27 0 11 9 15 9 10 2 -9 -17 6 -17 23 0 8 7 11 7 8 1 -4 -7 3 -11
18 -11 14 0 22 3 19 8 -3 5 -1 9 5 9 5 0 11 -6 14 -12 3 -10 8 -9 22 2 10 8
16 10 12 4 -4 -7 2 -11 18 -11 15 0 22 4 18 11 -3 6 0 6 8 -1 15 -15 33 -18
25 -5 -3 5 1 9 9 9 8 0 12 -4 10 -7 -3 -4 6 -7 20 -7 15 0 22 4 18 11 -3 6 0
6 8 -1 7 -7 17 -13 22 -13 4 0 5 6 1 13 -6 10 -4 10 7 0 15 -15 33 -18 25 -5
-3 5 1 9 9 9 8 0 12 -4 10 -7 -3 -4 6 -7 20 -7 15 0 22 4 18 11 -3 6 0 6 8 -1
7 -7 17 -13 22 -13 4 0 5 6 1 13 -6 9 -4 9 7 1 20 -15 61 -16 53 -1 -5 8 -3 8
7 0 16 -16 33 -17 23 -1 -5 8 -3 8 7 2 17 -11 91 -15 84 -5 -2 4 2 8 10 8 8 0
12 -4 10 -7 -3 -4 6 -7 20 -7 15 0 22 4 18 11 -3 6 0 6 8 -1 7 -7 17 -13 22
-13 4 0 5 6 1 13 -5 7 0 6 11 -3 14 -11 19 -12 22 -2 3 6 9 12 14 12 6 0 8 -4
5 -9 -3 -5 5 -8 19 -8 16 0 22 4 18 11 -4 6 1 5 11 -3 14 -12 19 -12 26 -2 6
11 9 11 13 0 4 -12 7 -11 16 1 7 10 11 11 11 3 0 -7 5 -13 11 -13 5 0 7 6 3
13 -5 7 -1 7 10 -2 14 -12 19 -12 26 -2 6 11 8 11 12 0 4 -12 8 -11 23 1 10 8
16 10 12 4 -4 -7 12 -11 48 -11 36 0 52 4 48 11 -3 6 0 5 8 -1 15 -15 33 -18
25 -5 -3 5 1 9 9 9 8 0 12 -4 10 -7 -3 -4 6 -7 20 -7 15 0 22 4 18 11 -3 6 0
6 8 -1 7 -7 17 -13 22 -13 4 0 5 6 1 13 -5 7 0 6 11 -3 14 -11 19 -12 22 -2 3
6 9 12 14 12 6 0 7 -5 4 -10 -9 -14 8 -12 24 3 11 9 12 9 7 0 -5 -9 1 -12 18
-11 15 1 26 7 26 13 0 5 5 3 10 -5 9 -13 10 -13 10 0 0 12 2 12 9 2 9 -15 42
-13 53 3 5 6 8 4 8 -5 0 -13 1 -13 10 0 6 10 10 11 10 3 0 -7 7 -13 16 -13 8
0 13 4 10 9 -4 5 2 8 11 6 10 -2 18 -4 18 -5 0 -9 51 -7 57 2 5 9 8 9 8 1 0
-13 18 -12 39 1 10 6 12 5 7 -2 -5 -8 1 -11 18 -10 15 1 26 7 26 13 0 5 5 3
10 -5 9 -13 10 -13 10 0 0 12 2 12 9 2 9 -15 42 -13 53 3 5 6 8 4 8 -5 0 -13
1 -13 10 0 6 10 10 11 10 3 0 -7 7 -13 16 -13 8 0 13 4 10 9 -4 5 2 8 11 6 10
-2 18 -4 18 -5 0 -1 12 -4 28 -6 18 -3 27 0 27 8 0 8 3 9 8 3 10 -14 52 -15
52 -1 0 6 4 5 9 -3 8 -13 12 -13 27 0 11 9 15 9 10 2 -9 -17 6 -17 23 -1 11
10 13 10 7 1 -4 -7 -2 -13 3 -13 6 0 11 6 11 13 0 8 3 8 9 -2 8 -12 12 -12 25
-2 13 11 19 11 32 0 13 -10 17 -10 25 2 6 10 9 10 9 2 0 -7 5 -13 11 -13 5 0
7 6 3 13 -6 10 -4 10 7 0 7 -7 17 -13 22 -13 4 0 5 6 1 13 -5 8 -2 8 9 -2 14
-11 20 -11 34 0 11 10 14 10 9 2 -9 -17 6 -17 23 -1 11 10 13 10 7 1 -4 -7 -2
-13 3 -13 6 0 11 6 11 13 0 8 3 8 9 -2 8 -13 12 -13 27 0 11 9 15 9 10 2 -9
-17 6 -17 23 0 11 9 13 9 7 0 -9 -17 6 -17 23 0 11 10 13 10 7 0 -4 -7 -2 -13
3 -13 6 0 11 6 11 13 0 8 3 8 9 -2 8 -13 12 -13 27 0 11 9 15 9 10 2 -9 -17 6
-17 23 0 10 8 12 8 7 0 -8 -15 33 -14 53 1 11 8 13 8 7 -1 -9 -17 6 -17 23 -1
8 8 11 8 8 2 -4 -7 3 -11 18 -11 14 0 22 3 20 8 -3 4 0 11 6 15 7 4 9 3 5 -4
-3 -6 -1 -14 5 -18 6 -3 15 0 20 7 6 10 9 11 9 2 0 -19 18 -16 23 5 4 16 5 16
6 0 1 -20 16 -24 26 -8 3 6 11 10 16 10 6 0 8 -4 5 -8 -2 -4 6 -8 20 -8 13 0
24 4 24 8 0 4 5 8 11 8 5 0 7 -6 3 -12 -5 -9 -2 -9 9 1 13 10 20 11 30 2 16
-13 28 -5 20 15 -3 9 1 14 12 14 9 0 13 -5 10 -10 -7 -11 30 -8 41 3 4 4 16 7
26 7 11 0 16 4 13 10 -3 5 -1 10 4 10 6 0 11 -4 11 -8 0 -5 7 -9 15 -9 11 0
12 4 4 13 -8 9 -5 11 10 7 12 -3 18 -10 14 -17 -4 -6 1 -5 10 3 18 15 23 26 7
16 -5 -3 -10 -2 -10 3 0 11 36 22 45 14 11 -12 42 -8 42 5 0 7 -4 13 -9 13 -4
0 -8 4 -8 8 0 5 7 9 15 9 8 0 12 -4 9 -9 -3 -4 0 -8 6 -8 6 0 8 -5 4 -12 -4
-6 5 -3 19 8 15 10 27 25 27 32 0 14 20 17 20 2 0 -5 5 -10 11 -10 5 0 7 5 4
10 -6 9 6 13 46 13 9 0 16 6 16 13 0 7 -5 10 -11 6 -6 -3 -20 -7 -31 -9 -11
-1 -14 1 -7 3 6 3 9 11 5 17 -4 7 1 6 10 -2 16 -13 22 -8 18 13 -1 5 5 3 14
-4 21 -18 53 -24 36 -7 -18 18 -12 30 14 25 13 -3 22 -1 19 3 -3 5 -2 14 2 21
5 7 11 5 21 -7 11 -16 13 -16 13 -3 0 9 7 19 16 22 10 4 14 12 10 23 -6 14 -4
14 14 -2 16 -14 21 -16 18 -5 -2 8 3 14 10 12 6 -1 11 4 10 10 -2 7 3 12 10
10 8 -1 11 2 7 9 -5 7 -15 3 -31 -12 -13 -12 -24 -19 -24 -16 0 4 16 23 36 42
24 24 33 29 29 16 -3 -11 -2 -22 3 -25 5 -3 9 1 10 9 1 8 3 22 4 31 1 14 3 14
15 -2 14 -18 14 -18 11 1 -2 11 -7 24 -13 28 -6 5 -3 7 7 4 9 -3 19 -1 22 6 3
7 3 2 0 -10 -3 -13 -2 -23 3 -23 5 0 9 10 10 21 1 12 11 30 23 41 11 10 18 23
15 28 -3 4 6 7 19 6 16 -2 23 2 23 13 0 9 5 27 11 41 8 18 11 20 11 8 1 -10 6
-18 12 -18 6 0 9 9 6 20 -3 11 -1 18 3 15 5 -3 11 4 15 15 5 16 12 19 28 14
22 -6 22 -6 2 10 -11 9 -15 15 -10 14 6 -1 20 3 31 10 12 6 25 8 29 4 5 -4 5
-1 1 6 -5 8 -13 9 -26 2 -24 -13 -30 -13 -30 0 0 6 6 9 13 8 6 -2 11 2 10 9
-2 7 3 10 11 7 8 -3 17 0 21 5 3 6 10 9 15 6 4 -3 7 3 6 12 -3 21 33 75 46 67
15 -9 8 3 -9 17 -14 12 -16 12 -8 0 6 -10 4 -12 -5 -6 -8 5 -11 4 -7 -2 4 -6
-2 -22 -13 -35 -11 -14 -17 -28 -14 -30 2 -3 -2 -11 -11 -18 -8 -7 -15 -9 -15
-6 0 11 22 49 37 64 7 8 11 17 8 22 -7 11 22 33 34 26 5 -3 8 8 7 25 -1 16 2
33 7 36 5 3 3 9 -4 14 -9 5 -2 7 18 5 25 -4 31 -1 26 11 -4 11 -8 11 -13 3 -5
-9 -9 -9 -14 -1 -4 6 -2 11 4 11 7 0 9 7 6 16 -5 14 -4 15 9 4 13 -11 14 -10
9 5 -6 14 -4 16 7 11 8 -4 5 0 -5 8 -20 16 -20 16 0 16 21 0 44 18 44 34 0 5
-7 1 -16 -10 -14 -18 -15 -18 -8 6 3 14 10 29 15 34 13 14 11 28 -3 20 -8 -5
-9 -2 -3 12 5 10 9 29 9 41 1 13 6 25 13 27 7 3 11 0 9 -7 -1 -7 -1 -9 1 -4 3
4 10 4 16 0 7 -3 1 6 -13 22 -24 27 -24 27 -2 16 26 -14 29 -4 5 16 -12 8 -13
12 -4 11 7 -2 16 3 19 11 3 10 0 11 -9 5 -11 -6 -12 -5 -3 7 12 16 12 29 0 48
-6 9 -5 12 2 7 17 -10 21 18 4 37 -15 16 -14 17 1 11 15 -5 16 -3 7 20 -7 19
-6 26 3 26 8 0 7 4 -3 10 -12 8 -13 11 -1 19 10 6 10 10 1 16 -9 6 -9 10 1 16
11 7 9 9 -6 9 -15 0 -17 2 -6 9 8 5 12 18 8 30 -3 12 -1 21 4 21 6 0 5 8 -1
20 -8 15 -8 20 1 20 8 0 8 4 -1 15 -7 8 -9 15 -4 15 5 0 9 16 9 35 0 19 -4 35
-8 35 -5 0 -5 5 -2 11 11 17 11 109 0 109 -7 0 -7 3 0 8 6 4 10 19 10 35 1 21
-3 26 -15 22 -13 -5 -13 -4 0 7 12 10 15 31 13 93 -1 44 -4 88 -7 97 -2 10 1
18 6 18 6 0 5 6 -2 15 -7 8 -8 15 -3 15 10 0 10 41 -1 58 -4 7 -4 12 1 12 4 0
8 11 8 25 0 18 -4 24 -15 20 -10 -3 -9 0 3 9 14 10 15 15 5 19 -10 4 -10 6 1
6 11 1 11 4 0 18 -10 11 -10 14 -1 9 6 -4 12 -3 12 3 0 5 -6 12 -12 14 -10 4
-10 6 -1 6 9 1 10 8 3 26 -5 14 -6 25 -2 25 4 0 8 9 8 20 0 11 -4 20 -9 20 -4
0 -5 5 -2 11 10 14 10 142 1 157 -4 7 -4 12 1 12 4 0 8 24 8 54 0 30 -2 53 -5
51 -3 -2 -5 8 -5 21 0 13 2 24 5 24 3 0 5 20 5 45 0 36 -3 44 -15 40 -11 -4
-10 -1 2 8 13 11 15 16 6 25 -7 7 -8 12 -2 12 5 0 10 9 10 20 0 11 -5 20 -11
20 -5 0 -3 5 5 10 12 8 12 10 1 10 -11 0 -11 3 0 17 12 15 12 16 -6 10 -19 -7
-19 -6 -2 7 14 10 15 15 5 19 -10 4 -10 6 1 6 11 1 11 4 0 18 -12 14 -12 15
-1 9 11 -7 12 -4 3 13 -9 16 -9 21 0 21 8 0 8 4 -1 15 -7 8 -8 15 -3 15 10 0
10 41 -1 58 -4 7 -4 12 1 12 4 0 8 20 8 45 0 36 -3 44 -15 40 -13 -4 -13 -4 0
7 16 14 23 48 9 48 -5 0 -4 12 1 26 9 23 8 25 -7 20 -16 -5 -16 -4 -3 6 18 16
22 48 6 48 -7 0 -7 3 -1 8 6 4 10 14 10 22 0 8 -4 18 -10 22 -6 5 -5 8 3 8 7
0 11 4 7 9 -10 17 -12 71 -2 71 5 0 4 7 -3 15 -7 8 -8 15 -3 15 10 0 10 41 -1
58 -4 7 -4 12 1 12 4 0 8 20 8 45 0 25 -4 45 -10 45 -5 0 -3 5 5 10 12 8 13
11 1 19 -11 7 -11 9 0 14 10 4 10 6 2 6 -9 1 -10 8 -3 25 5 15 5 27 -3 35 -7
7 -7 11 -1 11 7 0 8 18 4 50 -4 27 -3 50 0 50 10 0 6 44 -5 52 -7 5 -7 8 0 8
11 0 12 91 1 109 -4 6 -2 11 5 11 8 0 8 4 -1 15 -9 11 -9 15 -1 15 7 0 9 5 5
12 -9 14 -12 58 -4 58 10 0 5 145 -5 152 -7 5 -7 8 0 8 6 0 10 14 10 30 0 22
-4 29 -15 25 -13 -4 -13 -4 0 7 16 14 19 45 6 67 -5 8 -5 12 0 8 12 -7 12 186
-1 195 -7 5 -7 8 0 8 6 0 10 35 10 85 0 47 -4 85 -8 85 -4 0 -3 8 2 18 7 13 6
23 -1 30 -8 8 -9 12 -1 12 13 0 12 32 -2 42 -6 5 -4 8 4 8 11 0 9 4 -5 15 -10
8 -14 15 -9 14 22 -3 29 2 15 11 -11 7 -11 10 -2 10 7 0 11 4 7 9 -10 17 -12
71 -2 71 5 0 4 7 -3 15 -7 8 -8 15 -3 15 5 0 10 7 10 15 0 10 -6 14 -16 10
-14 -4 -14 -4 -1 7 11 10 15 34 15 96 0 45 -4 82 -8 82 -4 0 -3 8 2 18 7 13 6
23 -1 30 -8 8 -9 12 -1 12 13 0 12 32 -2 42 -6 5 -4 8 4 8 11 0 9 4 -5 15 -10
8 -14 15 -9 14 22 -3 29 2 15 11 -11 7 -11 10 -2 10 7 0 11 4 7 9 -10 17 -12
71 -2 71 5 0 4 7 -3 15 -7 8 -8 15 -3 15 5 0 10 7 10 15 0 10 -6 14 -16 10
-14 -4 -14 -4 -1 7 11 10 15 34 15 96 0 45 -4 82 -8 82 -4 0 -3 8 2 18 7 13 6
23 -1 30 -8 8 -9 12 -1 12 13 0 12 32 -2 42 -6 5 -4 8 4 8 11 0 9 4 -5 15 -10
8 -14 15 -9 14 22 -3 29 2 15 11 -10 6 -11 10 -3 10 9 0 10 7 4 22 -5 13 -5
32 -1 43 4 11 3 26 -2 33 -7 7 -7 12 -1 12 5 0 10 7 10 15 0 10 -6 14 -16 10
-14 -4 -14 -4 -1 7 11 10 15 34 15 96 0 45 -4 82 -8 82 -4 0 -3 8 2 18 7 13 6
23 -1 30 -7 7 -8 12 -2 12 5 0 10 9 10 20 0 11 -5 20 -11 20 -5 0 -3 5 5 10
12 8 12 10 1 10 -11 0 -11 3 0 17 12 15 12 16 -6 10 -18 -6 -18 -5 -4 5 11 9
14 20 9 33 -4 11 -4 30 1 41 4 13 3 26 -4 33 -7 7 -7 11 -1 11 6 0 11 7 11 15
0 10 -6 14 -16 10 -14 -4 -14 -4 -1 7 11 10 14 25 10 61 -3 26 -3 47 0 47 8 0
5 104 -4 118 -4 7 -4 12 1 12 4 0 8 14 8 30 0 17 -4 30 -9 30 -5 0 -2 8 5 17
12 15 12 16 -6 10 -20 -7 -20 -7 -1 8 14 11 16 15 5 15 -11 0 -12 2 0 9 9 6
10 11 2 15 -6 4 -9 12 -5 17 8 13 13 100 6 95 -4 -2 -7 18 -7 45 0 27 4 49 9
49 5 0 3 7 -4 15 -8 9 -8 15 -2 15 12 0 10 38 -2 58 -4 7 -4 12 1 12 4 0 8 31
8 70 0 38 -3 70 -7 70 -4 0 -3 12 2 26 9 23 8 25 -7 20 -16 -5 -16 -4 -3 6 16
14 22 68 7 68 -5 0 -3 8 4 17 12 15 12 16 -6 10 -18 -6 -18 -5 -4 5 11 9 14
20 9 33 -4 11 -4 30 1 43 6 15 5 22 -4 22 -7 0 -8 3 -2 8 11 8 15 113 4 106
-4 -2 -11 0 -14 6 -4 6 -3 10 2 9 20 -3 27 2 13 11 -10 6 -11 10 -3 10 9 0 10
7 4 23 -4 12 -5 33 -1 47 4 14 3 37 -1 53 -4 15 -4 27 2 27 5 0 9 5 9 11 0 5
-4 7 -10 4 -5 -3 -8 0 -5 7 9 22 10 188 2 188 -4 0 -3 8 2 18 7 13 6 23 -1 30
-7 7 -8 12 -3 12 6 0 10 20 10 45 0 36 -3 44 -15 40 -11 -4 -10 -1 2 8 14 11
15 16 5 27 -9 10 -9 11 1 6 6 -4 12 -2 12 3 0 6 -5 11 -11 11 -5 0 -7 5 -3 11
11 18 11 83 -1 91 -6 5 -5 8 3 8 7 0 10 5 7 10 -4 6 -12 8 -18 4 -7 -3 -4 1 5
9 10 8 15 17 11 20 -10 11 -10 87 1 87 4 0 3 7 -4 15 -7 8 -8 15 -3 15 5 0 10
7 10 15 0 10 -6 14 -16 10 -14 -4 -14 -4 -1 7 11 10 14 25 10 61 -3 26 -3 47
0 47 3 0 5 59 5 130 0 111 -2 129 -15 125 -10 -3 -10 -1 3 9 22 17 22 30 0 22
-16 -5 -16 -4 -3 6 9 8 15 31 15 61 0 38 -3 46 -15 42 -13 -4 -13 -4 0 7 9 8
15 30 15 56 0 33 -3 41 -15 37 -8 -3 -6 2 5 10 16 13 17 17 6 24 -11 7 -11 9
0 14 10 4 10 6 2 6 -9 1 -10 8 -3 25 6 16 5 28 -3 36 -8 9 -8 11 -1 7 14 -8
13 25 -1 35 -6 5 -5 8 3 8 7 0 10 5 7 10 -4 6 -12 8 -18 4 -7 -3 -4 1 5 9 10
8 15 17 11 20 -10 11 -10 87 1 87 4 0 3 7 -4 15 -7 8 -8 15 -3 15 5 0 10 7 10
15 0 10 -6 14 -16 10 -14 -4 -14 -4 -1 7 21 18 21 80 0 73 -13 -4 -13 -4 0 7
12 10 14 24 10 56 -4 24 -2 42 3 42 5 0 4 7 -3 15 -7 8 -8 15 -3 15 5 0 9 9 9
20 0 14 -5 19 -16 15 -10 -3 -10 -1 3 9 14 10 15 15 5 19 -10 4 -10 6 1 6 11
1 11 4 0 18 -10 12 -11 15 -1 9 12 -7 11 15 -4 62 -2 6 2 12 8 12 6 0 5 6 -3
17 -8 9 -9 14 -3 10 10 -6 10 59 -1 91 -2 6 0 12 4 12 5 0 5 16 1 35 -5 22 -4
35 2 35 6 0 5 6 -2 15 -7 8 -8 15 -3 15 5 0 10 7 10 15 0 10 -6 14 -16 10 -14
-4 -14 -4 -1 7 11 10 14 25 10 61 -3 26 -3 47 0 47 3 0 5 16 5 35 0 19 -4 35
-8 35 -5 0 -5 5 -2 11 11 17 11 109 0 109 -6 0 -6 3 0 8 12 8 13 22 2 40 -5 7
-3 12 4 12 8 0 7 5 -2 17 -8 9 -9 14 -3 10 12 -7 12 21 0 41 -4 6 -3 12 3 12
6 0 6 11 1 30 -6 20 -5 30 2 30 6 0 6 6 -2 15 -7 8 -8 15 -3 15 11 0 9 72 -2
90 -5 9 -4 11 4 6 11 -7 9 16 -5 62 -2 6 0 12 4 12 5 0 8 18 7 40 0 22 -4 40
-9 40 -5 0 -2 8 5 17 12 15 12 16 -6 10 -20 -7 -20 -7 -1 8 14 11 16 15 5 15
-11 0 -12 2 0 9 9 6 10 11 2 15 -7 5 -8 13 -1 25 6 12 5 22 -2 29 -9 9 -9 12
-1 12 8 0 9 9 3 30 -6 20 -5 30 2 30 6 0 6 6 -2 15 -7 8 -8 15 -3 15 11 0 9
72 -2 90 -5 9 -4 11 4 6 11 -7 9 16 -5 62 -2 6 2 12 9 12 8 0 6 4 -3 10 -8 5
-10 10 -4 10 14 0 13 32 -1 42 -6 5 -4 8 5 8 13 0 13 1 0 10 -12 8 -13 11 -1
19 7 5 9 11 4 14 -5 3 -8 21 -6 39 8 73 7 168 -1 168 -5 0 -2 8 5 17 12 15 12
16 -6 10 -18 -6 -18 -5 -4 5 11 9 14 20 9 33 -4 11 -4 31 0 45 4 14 3 37 -1
53 -4 15 -4 27 1 27 7 0 4 60 -5 88 -3 6 0 12 4 12 5 0 5 16 1 35 -5 22 -4 35
2 35 6 0 5 6 -2 15 -7 8 -8 15 -3 15 5 0 10 7 10 15 0 10 -6 14 -16 10 -14 -4
-14 -4 -1 7 12 10 14 24 10 56 -4 24 -2 42 3 42 5 0 4 7 -3 15 -7 8 -8 15 -3
15 5 0 10 7 10 15 0 10 -6 14 -16 10 -14 -5 -14 -4 0 7 11 10 13 22 8 46 -4
20 -3 32 4 32 8 0 8 3 1 10 -6 6 -8 31 -4 61 6 43 4 49 -9 44 -14 -4 -14 -4
-1 7 15 13 22 58 9 58 -4 0 -5 12 -1 28 11 44 7 77 -9 74 -12 -2 -12 0 1 10
15 13 21 88 7 88 -4 0 -3 8 2 18 7 13 6 23 -1 30 -8 8 -9 12 -1 12 7 0 8 12 3
35 -4 19 -5 35 -1 35 3 0 6 16 6 35 0 19 -4 35 -8 35 -5 0 -5 5 -1 11 8 14 8
144 -1 158 -3 6 -1 11 6 11 8 0 6 7 -5 19 -14 15 -15 21 -4 28 8 5 13 27 13
56 0 38 -3 46 -15 42 -13 -4 -13 -4 0 7 18 15 22 128 5 128 -5 0 -3 5 5 10 11
7 11 10 2 10 -7 0 -10 5 -6 11 10 17 10 109 0 109 -5 0 -2 8 5 17 12 15 12 16
-6 10 -20 -7 -20 -7 -1 8 14 11 16 15 5 15 -11 0 -12 2 0 9 9 6 10 11 2 15 -7
5 -8 13 -1 25 6 12 5 22 -2 29 -9 9 -9 12 -1 12 8 0 9 9 3 30 -6 20 -5 30 2
30 6 0 6 6 -2 15 -7 8 -8 15 -3 15 11 0 9 72 -2 90 -5 9 -4 11 4 6 11 -7 9 16
-5 62 -2 6 2 12 9 12 8 0 6 4 -3 10 -8 5 -10 10 -4 10 14 0 13 32 -1 42 -6 5
-4 8 5 8 13 0 13 1 0 10 -12 8 -13 11 -1 19 7 5 9 11 4 14 -5 3 -8 21 -6 39 8
73 7 168 -1 168 -5 0 -2 8 5 17 12 15 12 16 -6 10 -18 -6 -18 -5 -4 5 11 9 14
20 9 33 -4 11 -4 31 0 45 4 14 3 37 -1 53 -4 15 -4 27 1 27 7 0 4 60 -5 88 -3
6 0 12 4 12 5 0 5 16 1 35 -5 22 -4 35 2 35 6 0 5 6 -2 15 -7 8 -8 15 -3 15 5
0 10 7 10 15 0 10 -6 14 -16 10 -14 -4 -14 -4 -1 7 16 13 20 94 6 116 -4 7 -3
12 2 12 5 0 9 7 9 15 0 10 -6 14 -16 10 -14 -5 -14 -4 0 7 11 10 13 22 8 46
-4 19 -2 32 3 32 6 0 5 7 -2 15 -10 12 -10 15 1 15 9 1 8 5 -5 15 -16 12 -17
15 -4 15 12 0 14 7 8 40 -4 22 -4 40 -1 40 8 0 5 65 -4 79 -3 6 -1 11 5 11 6
0 8 5 5 10 -4 6 -12 8 -18 4 -7 -3 -5 0 3 8 10 9 15 33 15 78 0 48 -4 67 -15
72 -12 5 -12 7 3 7 14 1 16 5 8 19 -6 11 -6 24 0 34 7 12 5 20 -8 27 -14 8
-15 10 -3 11 11 0 15 10 14 34 -1 19 -4 38 -7 43 -3 5 -2 15 3 23 5 8 5 22 -1
32 -5 10 -6 18 -1 18 5 0 9 7 9 15 0 8 -5 15 -11 15 -6 0 -4 5 4 10 8 5 10 10
4 10 -7 0 -9 11 -6 26 4 21 2 25 -9 20 -8 -4 -6 -1 3 7 13 10 15 16 6 25 -9 9
-9 12 2 13 10 0 7 4 -5 9 -18 8 -18 9 -2 9 15 1 16 5 7 21 -8 15 -8 20 2 20 6
0 3 7 -8 15 -15 12 -15 14 -2 9 15 -5 16 -2 8 25 -6 22 -5 31 3 32 7 0 3 4 -8
9 l-20 9 20 1 c20 1 20 1 1 15 -20 15 -20 15 0 15 16 0 17 2 4 10 -12 8 -12
10 -1 10 11 0 11 3 1 15 -10 12 -10 15 1 15 11 0 11 2 -1 10 -13 9 -13 10 0
10 13 0 13 1 0 10 -13 9 -13 10 0 11 10 0 8 3 -5 9 -19 8 -19 9 -1 9 15 1 16
4 6 16 -7 8 -9 15 -4 15 11 0 10 182 0 199 -4 6 -1 11 6 12 7 0 4 4 -7 9 -11
5 -14 9 -6 9 9 1 12 9 9 26 -3 14 -2 25 1 25 7 0 4 178 -3 197 -3 7 0 13 7 14
7 0 3 4 -8 9 l-20 9 20 0 c17 1 17 3 5 11 -13 9 -13 10 0 10 13 0 13 1 0 10
-11 7 -11 10 -2 10 7 0 10 5 7 10 -4 6 -12 8 -18 4 -7 -3 -4 1 5 9 16 12 16
16 2 35 -14 20 -13 21 2 15 11 -4 15 -2 11 4 -4 6 -8 47 -9 91 -2 48 -6 76
-11 69 -5 -7 -6 -2 -3 13 7 34 -3 72 -18 63 -6 -4 -5 1 3 11 12 14 12 19 2 25
-7 5 -12 11 -12 15 5 37 0 48 -20 43 -19 -5 -20 -4 -5 12 19 20 20 31 5 31 -5
0 -8 -4 -5 -8 2 -4 -5 -8 -17 -9 -12 0 -16 1 -9 4 6 3 9 10 6 15 -4 6 -2 8 4
4 6 -3 13 -2 17 4 3 5 -2 10 -12 10 -17 1 -16 2 2 16 19 16 19 16 -5 9 -23 -7
-24 -7 -10 10 8 11 10 16 4 12 -7 -4 -15 0 -18 9 -3 8 -10 13 -15 10 -5 -3 -8
8 -7 24 1 17 -2 30 -7 30 -4 0 -6 4 -3 8 3 5 -4 15 -14 22 -15 11 -17 17 -8
27 8 11 7 12 -6 7 -9 -3 -16 -11 -16 -17 0 -6 -3 -7 -7 -4 -3 4 4 19 18 35 13
15 20 24 15 20 -5 -4 -15 -3 -22 3 -8 7 -14 6 -20 -2 -4 -7 -3 -9 4 -5 6 3 14
1 17 -5 5 -7 0 -10 -11 -7 -15 3 -18 11 -17 38 2 30 2 32 -7 13 -14 -33 -20
-28 -10 8 8 26 7 29 -5 19 -12 -10 -15 -9 -15 4 0 9 5 16 10 16 6 0 10 5 10
12 0 9 -3 9 -12 0 -7 -7 -21 -12 -33 -12 -18 1 -18 1 -2 11 19 11 23 29 6 29
-5 0 -7 -4 -4 -10 3 -5 1 -10 -4 -10 -6 0 -11 6 -11 13 0 8 -3 7 -10 -3 -6
-10 -8 -5 -7 20 2 33 0 35 -30 34 -19 -1 -31 3 -30 10 1 6 -4 10 -10 9 -7 -2
-12 0 -12 5 3 20 -2 32 -16 32 -7 0 -18 6 -22 13 -4 7 -21 23 -37 35 -16 12
-24 22 -18 22 5 0 13 7 16 16 5 14 4 15 -9 4 -15 -13 -21 -2 -7 16 4 5 3 6 -3
2 -26 -21 -66 7 -48 34 3 6 1 8 -5 4 -6 -3 -20 6 -31 20 -12 15 -21 22 -21 17
0 -5 5 -14 11 -20 7 -7 6 -12 -6 -17 -9 -3 -14 -2 -11 3 3 4 -1 17 -9 27 -13
18 -14 18 -9 -6 4 -23 3 -23 -7 3 -9 24 -13 26 -27 15 -13 -11 -14 -11 -7 1 6
11 4 13 -8 8 -8 -3 -21 1 -28 9 -10 12 -14 12 -21 2 -5 -8 -6 -1 -2 17 6 29 6
29 -11 10 -9 -11 -14 -15 -11 -10 6 14 -3 27 -31 42 -14 8 -24 9 -28 3 -4 -6
-15 -1 -26 12 -12 13 -18 18 -15 12 3 -7 -4 -11 -18 -11 -15 0 -23 4 -20 12 6
16 -29 13 -53 -5 -15 -12 -16 -12 -5 0 17 19 15 26 -7 26 -11 0 -18 -3 -16 -6
2 -3 -5 -6 -15 -6 -12 0 -16 4 -10 11 6 7 2 11 -13 12 -12 1 -25 -3 -29 -10
-6 -9 -8 -9 -8 1 0 7 -4 10 -10 7 -5 -3 -10 0 -10 7 0 9 -3 9 -10 -2 -5 -8
-10 -10 -10 -3 0 13 -18 12 -39 -1 -10 -6 -12 -5 -7 2 5 9 -2431 12 -9833 12
-7819 0 -9841 -3 -9841 -13 0 -8 -4 -7 -10 3 -8 12 -10 12 -10 1 0 -11 -3 -11
-16 0 -15 12 -16 11 -11 -11z m-228 -60 c3 -6 -1 -7 -9 -4 -18 7 -21 14 -7 14
6 0 13 -4 16 -10z m20290 0 c3 -5 1 -10 -4 -10 -6 0 -11 5 -11 10 0 6 2 10 4
10 3 0 8 -4 11 -10z m25 -20 c0 -5 -8 -10 -17 -10 -15 0 -16 2 -3 10 19 12 20
12 20 0z m-20513 -67 c-4 -3 -1 -13 6 -22 10 -14 10 -14 -4 -4 -12 10 -18 10
-29 0 -8 -6 -6 -2 4 11 11 12 21 22 24 22 3 0 2 -3 -1 -7z m20711 -48 c-3 -3
-9 2 -12 12 -6 14 -5 15 5 6 7 -7 10 -15 7 -18z m-20923 -135 c3 -5 -1 -10
-10 -10 -9 0 -13 5 -10 10 3 6 8 10 10 10 2 0 7 -4 10 -10z m-83 -87 c-6 -2
-9 -10 -6 -15 4 -7 2 -8 -5 -4 -13 9 -5 26 12 25 9 0 8 -2 -1 -6z m21392 -209
c3 -8 2 -12 -4 -9 -6 3 -10 10 -10 16 0 14 7 11 14 -7z m-21604 -159 c0 -2 -6
-5 -13 -8 -8 -3 -14 1 -14 8 0 7 6 11 14 8 7 -3 13 -6 13 -8z m21710 -61 c0
-8 -19 -13 -24 -6 -3 5 1 9 9 9 8 0 15 -2 15 -3z m7 -21 c-4 -3 -2 -11 3 -18
7 -8 5 -12 -4 -12 -8 0 -12 7 -11 16 5 22 4 21 12 21 3 0 3 -3 0 -7z m17 -93
c-6 -6 -10 -3 -10 10 0 13 4 16 10 10 7 -7 7 -13 0 -20z m26 -3384 c0 -3 -4
-8 -10 -11 -5 -3 -10 -1 -10 4 0 6 5 11 10 11 6 0 10 -2 10 -4z m-21823
-12350 c-3 -8 -2 -17 4 -20 5 -2 4 -3 -2 -2 -15 3 -21 36 -7 36 6 0 8 -6 5
-14z m34 -113 c13 -16 12 -17 -3 -4 -10 7 -18 15 -18 17 0 8 8 3 21 -13z
m21704 -43 c3 -5 1 -10 -4 -10 -6 0 -11 5 -11 10 0 6 2 10 4 10 3 0 8 -4 11
-10z m-21590 -240 c-3 -5 -1 -10 6 -10 7 0 10 -3 6 -6 -9 -9 -28 6 -22 17 4 5
8 9 11 9 3 0 2 -4 -1 -10z m41 -52 l19 -21 -30 18 c-41 26 -40 25 -23 25 8 0
23 -10 34 -22z m308 -326 c3 -5 -1 -9 -9 -9 -8 0 -12 4 -9 9 3 4 7 8 9 8 2 0
6 -4 9 -8z m36 -48 c0 -8 -19 -13 -24 -6 -3 5 1 9 9 9 8 0 15 -2 15 -3z m35
-22 c-3 -3 -11 0 -18 7 -9 10 -8 11 6 5 10 -3 15 -9 12 -12z m20664 -15 c13 4
13 3 2 -5 -16 -12 -41 -5 -41 11 0 8 3 8 11 0 6 -6 19 -9 28 -6z m-20462 -119
c-3 -8 -6 -5 -6 6 -1 11 2 17 5 13 3 -3 4 -12 1 -19z m20237 3 c3 -5 0 -14 -7
-19 -10 -8 -13 -6 -14 9 -2 19 11 26 21 10z m-235 -88 c-6 -7 -15 -10 -20 -7
-13 8 -3 21 15 21 12 0 13 -4 5 -14z m-154 -13 c3 -5 1 -10 -4 -10 -6 0 -11 5
-11 10 0 6 2 10 4 10 3 0 8 -4 11 -10z"/>
<path d="M21181 19744 c-1 -6 6 -17 14 -24 12 -10 15 -9 15 4 0 10 -4 15 -9
12 -5 -4 -12 0 -14 6 -4 8 -6 9 -6 2z"/>
<path d="M21361 19634 c0 -11 3 -14 6 -6 3 7 2 16 -1 19 -3 4 -6 -2 -5 -13z"/>
<path d="M21439 19550 c18 -17 36 -28 41 -25 5 3 11 -3 15 -14 3 -10 14 -26
25 -36 15 -13 22 -14 37 -5 15 9 15 10 -7 4 -23 -6 -24 -6 -10 11 9 11 10 16
3 11 -7 -4 -13 -2 -13 3 0 6 -6 11 -14 11 -8 0 -17 7 -20 16 -4 9 -9 14 -12
11 -3 -3 -17 5 -31 19 -13 13 -29 24 -36 24 -6 0 3 -14 22 -30z"/>
<path d="M353 19515 c0 -8 4 -12 9 -9 5 3 6 10 3 15 -9 13 -12 11 -12 -6z"/>
<path d="M266 19418 c3 -5 10 -6 15 -3 13 9 11 12 -6 12 -8 0 -12 -4 -9 -9z"/>
<path d="M21731 19234 c0 -11 3 -14 6 -6 3 7 2 16 -1 19 -3 4 -6 -2 -5 -13z"/>
<path d="M21754 19169 c-3 -6 -1 -16 4 -21 8 -8 11 -5 9 11 -1 24 -3 25 -13
10z"/>
<path d="M100 19130 c-8 -5 -11 -13 -6 -17 5 -4 11 -2 13 5 3 6 10 9 15 6 7
-4 8 -2 4 4 -9 14 -7 14 -26 2z"/>
<path d="M5 17500 c3 -5 8 -10 11 -10 2 0 4 5 4 10 0 6 -5 10 -11 10 -5 0 -7
-4 -4 -10z"/>
<path d="M5 17020 c3 -5 8 -10 11 -10 2 0 4 5 4 10 0 6 -5 10 -11 10 -5 0 -7
-4 -4 -10z"/>
<path d="M21865 15160 c3 -5 8 -10 11 -10 2 0 4 5 4 10 0 6 -5 10 -11 10 -5 0
-7 -4 -4 -10z"/>
<path d="M21850 3051 c0 -7 -4 -9 -10 -6 -5 3 -10 1 -10 -4 0 -6 4 -11 9 -11
13 0 25 20 17 27 -3 4 -6 1 -6 -6z"/>
<path d="M21810 2901 c0 -6 4 -13 10 -16 6 -3 7 1 4 9 -7 18 -14 21 -14 7z"/>
<path d="M106 2838 c3 -5 10 -6 15 -3 13 9 11 12 -6 12 -8 0 -12 -4 -9 -9z"/>
<path d="M21745 2820 c-3 -6 1 -7 9 -4 18 7 21 14 7 14 -6 0 -13 -4 -16 -10z"/>
<path d="M320 2520 c-9 -6 -10 -10 -3 -10 6 0 15 5 18 10 8 12 4 12 -15 0z"/>
<path d="M21535 2501 c-3 -5 -2 -12 3 -15 5 -3 9 1 9 9 0 17 -3 19 -12 6z"/>
<path d="M385 2450 c-3 -5 -5 -10 -3 -11 33 -8 38 -7 27 7 -14 17 -16 17 -24
4z"/>
<path d="M21495 2449 c-4 -6 -5 -12 -2 -15 2 -3 7 2 10 11 7 17 1 20 -8 4z"/>
<path d="M21480 2360 c-9 -6 -10 -10 -3 -10 6 0 15 5 18 10 8 12 4 12 -15 0z"/>
<path d="M21391 2287 c-8 -10 -7 -14 2 -14 8 0 14 6 14 14 0 7 -1 13 -2 13 -2
0 -8 -6 -14 -13z"/>
<path d="M854 2128 c-4 -7 -3 -10 1 -5 5 4 20 -3 33 -15 l25 -23 -18 28 c-19
30 -30 34 -41 15z"/>
<path d="M971 2084 c0 -11 3 -14 6 -6 3 7 2 16 -1 19 -3 4 -6 -2 -5 -13z"/>
<path d="M1120 2056 c0 -2 8 -10 18 -17 15 -13 16 -12 3 4 -13 16 -21 21 -21
13z"/>
</g>
</svg>
